<?xml version="1.0" encoding="utf-8"?>
<!-- Generator: Adobe Illustrator 21.1.0, SVG Export Plug-In . SVG Version: 6.00 Build 0)  -->
<!DOCTYPE svg PUBLIC "-//W3C//DTD SVG 1.1//EN" "http://www.w3.org/Graphics/SVG/1.1/DTD/svg11.dtd">
<svg version="1.1" id="Layer_1" xmlns="http://www.w3.org/2000/svg" xmlns:xlink="http://www.w3.org/1999/xlink" x="0px" y="0px"
	 viewBox="0 0 108 112" style="enable-background:new 0 0 108 112;" xml:space="preserve">
<style type="text/css">
	.st0{fill:#8A9FA0;}
	.st1{fill:#D8E4E3;}
	.st2{fill:#CDD8D8;}
	.st3{fill:#E4DACA;}
	.st4{fill-rule:evenodd;clip-rule:evenodd;fill:#FFFFFF;}
	.st5{fill-rule:evenodd;clip-rule:evenodd;fill:#E4E4E4;}
	.st6{fill:none;}
</style>
<g>
	<g>
		<g>
			<path class="st0" d="M92.7,69.8C92.7,69.8,92.7,69.8,92.7,69.8c-0.1-0.2-0.2-0.4-0.2-0.4c0-0.1-0.1-0.1-0.2-0.1c0,0,0,0-0.1,0
				c0,0,0,0,0,0c0,0,0,0,0,0c-0.1,0-0.2,0-0.2,0c0,0-0.1,0-0.1,0c-0.2,0-0.4,0.1-0.6,0.2c-0.1,0-0.4,0.1-0.7,0.2c0,0-0.1,0-0.1,0
				c0.3-0.1,0.3-0.1,0,0c-0.2,0.1-0.5,0.2-0.7,0.3c-0.4,0.1-0.7,0.3-0.7,0.3c-0.1,0-0.2,0.1-0.3,0.1c-0.1,0-0.2,0.1-0.2,0.1
				c0,0,0,0-0.1,0c0,0,0,0,0.1,0c0,0-0.1,0-0.1,0c0,0,0,0,0,0c-1.2,0.5-2.8,1.2-4.5,1.8c0,0,0,0,0,0c-0.5,0.2-1.1,0.4-2.3,0.8l0.1,0
				c-1.6,0.6-2.8,0.9-4.1,1.2c-1.3,0.3-2.6,0.6-4.5,0.6l0.3,0c-0.3,0-0.5,0-0.7,0c-0.2,0-0.3,0-0.5,0c-0.1,0-0.1,0-0.2,0
				c-0.1,0-0.1,0-0.1,0c-0.6,0-1.2-0.1-1.8-0.2c-1.4-0.3-2.6-0.9-2.9-1.2c-0.5-0.4-0.5-0.3-0.4-0.2c-0.1,0-0.1-0.1-0.3-0.3l-0.3-0.2
				c-0.1-0.1-0.2-0.1-0.2-0.2c-0.6-0.6-0.8-1-0.8-1c0.1,0.2,0.3,0.5,0.5,0.6c-0.3-0.4-0.8-1.1-1-1.7c-0.1-0.1-0.1-0.3-0.1-0.4
				c-0.2-0.8-0.3-1.6-0.2-2.5c0.1-0.9,0.3-1.9,0.5-2.9c0.1-1-0.1-2.1-0.8-2.8c-0.7-0.7-1.6-1-2.4-1.2l0.2,0.1
				c-1.3-0.4-1.8-0.4-2.4-0.5c-0.6,0-1.2,0-2.6,0.4c-0.5,0.2-1.2,0.5-1.9,0.9c0.5-0.3-0.8,0.4-0.6,0.3c-0.4,0.3-0.7,0.5-0.9,0.6
				c-0.2,0.1-0.2,0.2-0.3,0.2c-0.1,0.1-0.2,0.2-0.4,0.4c-0.1,0.1-0.1,0.1-0.1,0c0-0.1,0-0.1,0-0.2l0.1-0.4c0-0.4,0.1-0.6,0.3-1.9
				c-0.2,1.2,0.2-0.9,0.1,0.4c0.7-3,0.4-4.5,0.6-5.8c-0.2-1.4-0.1,2.6-0.1,1.8c-0.1,0.6-0.1-1.1-0.1-2.1c0-0.4,0-0.9,0-1.5
				c0-0.3,0-0.6-0.1-1.1c0-0.2-0.1-0.4-0.1-0.7c0-0.1,0-0.3-0.1-0.4c0-0.2-0.1-0.4-0.2-0.5C53,51,53,51.1,53,51.1
				c-0.2-0.4-0.6-0.8-1-0.9c-0.3-0.1-0.6-0.1-0.9-0.1c-0.3,0.1-0.5,0.2-0.8,0.3c-0.5,0.4-1.3,0.7-1.4,0.9c0.6-0.4,1.3-0.8,2-1
				c-1.2,0.5-2.2,1.2-3.7,2.6c0.1-0.1,0.5-0.6,0.8-0.9c-0.5,0.3-0.9,0.8-1.3,1.3c0-0.1,0.4-0.7,1.1-1.2c0.6-0.6,1.5-1.1,2.1-1.4
				c-0.7,0.2-2.2,1.5-1.7,1c-0.7,0.8-1.9,1.6-2.6,3.2l0-0.1c-0.1,0.2-0.3,0.8-0.5,1.2l0.3-0.9c-0.3,0.7-0.5,1.2-0.8,1.9
				c-0.1,0.3-0.2,0.6-0.3,0.9C44,58,44,58,44,58.1c0-0.1,0-0.2,0.1-0.2c0.1-0.2,0.1-0.3,0.1-0.4c0.1-0.2,0.1-0.2,0.1-0.2
				c0,0.1,0,0.3,0.2-0.2c-0.1,0.3-0.2,0.6-0.2,0.9c0,0.1-0.1,0.3-0.1,0.4c0,0.2-0.1,0.3-0.1,0.3c-0.1,0.1-0.2,0-0.2,0.2
				c0,0,0,0.2-0.1,0c0.1,0.3,0.1,0,0.1,0.5c0,0,0,0.1,0,0.1l-0.1-0.3c0-0.2-0.1-0.4-0.1-0.5c-0.1-0.3-0.1-0.2-0.1,0
				c0,0.2,0.1,0.5,0,0.3c-0.1-0.7-0.2-0.2-0.5-1.1l0.1-0.1c-0.9-2.6-0.5-0.6-1.4-3c0.2,0.3,0.4,0.6,0.6,0.9
				c-0.2-0.4-0.4-0.8-0.6-1.2l0.3,0.2c-0.8-1.3-0.9-1.7-1.7-2.9c0.1,0.4-0.3,0-1.2-0.9c-0.3-0.3-0.2-0.3-0.2-0.3c0,0,0,0-0.1-0.1
				c-0.1-0.1-0.4-0.3-0.8-0.5c0.4,0.1,1,0.3,1.5,1c0.1,0,0.4,0.2,0.5,0.3c-0.3-0.4-0.8-0.9-1.3-1.2c-0.6-0.3-1.2-0.5-1.6-0.6
				c0.3,0.1,0.7,0.2,0.8,0.3c-1-0.3-2.1-0.2-3,0.3c-0.5,0.1-0.2-0.1,0.2-0.3c-0.6,0.2-1,0.5-1.6,1.2c0.1-0.2-0.2-0.4,1-1.2
				c-1,0.5-1.6,1.4-1.9,2.3c-0.1,0.1-0.2,0.4-0.4,0.7c-0.1,0.3-0.2,0.5-0.2,0.3c-0.5,1.5-0.2,3.6,0.1,5.5c0.1,0.1,0.1,0.3,0.2,0.7
				c0.2,0.8,0.5,1.8,0.8,2.5c0.4,0.8,0.8,1.6,1.4,2.4l0.4,1.1c0.9,1.3-0.6-1.5,1,0.6c1.1,1.4,0.2,0.7,0.5,1.3
				c0.7,0.7,1.9,1.7,2.7,3.2c-0.4-0.4-0.6-0.8-1-1.2l0.7,1.1c-1.2-1-1.8-2-1.2-0.9c0.3-0.1,1.1,0.9,1.9,1.8c0.8,0.9,1.6,1.8,1.9,1.7
				l0.4,0.7c-0.1-0.2-0.2-0.2-0.3-0.4c0.2,0.3,0.3,0.5,0.4,0.7c0.1,0.1,0.1,0.1,0.2,0.1c0.2,0,0.4,0.1,0.7,0.4
				c-0.1,0.1-0.1,0.1-0.3,0.2c-0.3,0.2-0.5,0.3-0.4,0.1l0,0.1l-0.1,0.1L41.6,75L41,75.6c-0.4,0.3-0.4,0.1,0-0.2
				c-0.6,0.5-1.2,1.1-1.9,1.6l0,0c-0.2,0.3-0.8,0.9-1,1.2c-0.6,0.3,0.2-0.2,0-0.2l-1,1c-0.5,0.2,0.3-0.6,1-1.2
				c-1.4,0.3-0.8,0.8-3.2,2.2l1-0.8C35,79.3,34.3,80,33,80.7c0.3-0.1,2.7-1.2,1.6-0.2c-0.4,0.2-0.8,0.5-1.4,1.1
				c-0.1-0.2-0.7,0.3-1.5,0.9l-0.1-0.3c-0.8,0.7-0.7,0.8-1.1,1.2c-1,0.6-1.3,0.6-1.7,0.6c-1.6,1,1.3-0.4-0.5,0.9
				c-1.4,0.7-2.2,1.5-3.7,2.6c-1,0.5,0.1-0.3-0.3-0.1l-0.7,0.7c-0.2,0.1-0.2,0-0.2,0c-0.6,0.5,0.1,0.3-1,1c-0.1,0.5-2.5,0.9-3.7,2
				c-0.4,0.1,0.1-0.3-0.1-0.3c-1.8,1.3-1.5,1.1-3,2.2l-1.5,0.5c1.1-0.3,0,0.6-1.1,1.4c0.1,0,0.1,0,0.2,0c-0.1,0.1-0.3,0.1-0.4,0.2
				c0.1-0.1,0.1-0.1,0.2-0.2l-0.2,0c-0.1,0.1-0.1,0.2-0.2,0.2c-0.3,0.1-0.6,0.3-0.9,0.4c0-0.1,0.1-0.3,0.4-0.5l0.7-0.1
				c0.4-0.4,0.7-0.8,0.5-0.9c-0.1,0.1-0.3,0.2-0.6,0.4c0.1-0.1,0.1-0.2,0.1-0.2c-0.1,0-0.2,0.2-0.5,0.4l-0.6-0.1l0,0.2l-2.5,0.9
				c-0.8,0.5-1.4,1.1-2.6,1.7c-0.4,0.1-0.2,0.5-0.2,0.8c0,0.3,0.1,0.7,0.1,1c0.1,0.6,0.1,1.3,0.2,2c-0.2-0.8-0.4-0.1-0.7-0.1
				c0.1-0.3,0.1-0.6,0.1-0.8c0-0.3,0-0.6-0.1-0.9c0-0.3-0.1-0.9-0.1-1.4l0-0.4c0-0.1-0.1-0.3,0.1-0.3c0.3-0.1,0.5-0.2,0.8-0.3
				c-1.1,0.4-1,0.2-0.8,0.1c-0.5,0-0.3,0.5-0.3,0.9L6,98.6l0.1,1.5c-0.1,0-0.2,0.1-0.2,0.4c0,0.4,0,0.9-0.1,1.5
				c0.2-0.5,0.3,0.1,0.4,0.9c1,0,2.6,0.2,3.1,0.1c0,0.1,0,0.2-0.3,0.2c-0.1,0-0.3,0-0.5,0c-0.3,0-0.7,0-1.2-0.1
				c0.5,0.1,1.1,0.2,1.4,0.2c0.3,0,0.5-0.1,0.8-0.1c0.5-0.1,1-0.2,1.7,0c-0.3,0-0.5-0.1-0.7,0c0.8-0.1,2.7,0.1,2.2,0.2l-0.3,0
				c2.2,0.2,6.8,0.2,7.1-0.1c0,0-0.3,0.4-0.4,0.5l2.7-0.8c0.4,0,0.8,0,1.3,0c0.2,0.3,0.4,0.7-0.9,0.9c0.5,0,1.2,0.1,2.3,0
				c-0.4,0-0.9-0.4-0.4-0.5c1.4,0.3,0.9,0.2,2.6,0.4c-0.5-0.1,0.1-0.5,0.9-0.6c-0.1,0.1,0.1,0.5-0.2,0.5l2.1-0.5
				c-0.5,0.1-0.1,0.4,0.4,0.5c-0.2-0.1,1.9-0.1,2.4-0.2l-0.9,0c2.4-0.1,2.3-0.8,4.7-1c-0.3,0.1-0.7,0.6,0.6,0.5
				c0.3-0.2,0.9-0.5,1.8-0.9c0.9-0.1,1.7-0.3,2.6-0.4c-1.1,0.5-2.3,1-3.2,1.2c0.9,0,0.3,0.1,1.6-0.1c0.5,0-0.7,0.3-1.1,0.4
				c1.1-0.1,2.1-0.3,3.2-0.5c-0.2-0.2,2.3-0.7,2.2-0.9c-1.1,0.3-2.2,0.6-3.3,0.9c-0.2-0.2,1.8-1,4-1.5c0.6,0-0.3,0.5-0.3,0.6
				c0.3-0.1,2-0.6,2.2-0.6l-0.9,0.3c1.2-0.2,1.9-0.8,3.4-0.9c0.5-0.1,1.6-0.1,1.6-0.3c-0.5,0-0.8-0.3-0.9-0.5
				c0.6-0.1,1.1-0.3,1.7-0.4l0,0.1l0.3-0.1l0-0.1c0.6-0.2,1.2-0.3,1.7-0.5c0.2,0.1-1.2,0.7-0.6,0.7c0-0.1,0.4-0.3,0.6-0.3
				c0.5-0.1-0.2,0.2,1-0.1c0.1-0.2,2.3-0.7,0.5-0.3c1.1-0.4,1.2-0.3,2.5-0.7c-0.3,0,0.3-0.3,1-0.7c0.5-0.2,1-0.3,1.4-0.4
				c0,0,0.1,0,0.1,0c2.3-0.7,3.5-1,5.6-1.7c0.2,0,1.2-0.3,0.8-0.1c0.3-0.1,0.6-0.3,1.1-0.5c0.5-0.1,0.2,0-0.1,0.1
				c-0.2,0.1-0.7,0.3-0.2,0.2c0,0,0.3-0.2,0.7-0.3c0.1,0,0.1,0,0.1,0l0,0.1l0,0.3c0,0.3,0,0.5,0,0.7c0.1-0.2,0.1-0.7,0.1-1.2l0-0.2
				c-0.1,0-0.1,0.1-0.2,0.1l-0.4,0.2c-0.3,0.1-0.5,0.2-0.7,0.3c0-0.1,0.1-0.2,0.5-0.4c0.6-0.2,1-0.3,1-0.3v6c0,0,0,0,0,0
				c0,0.1,0,0.2,0,0.4l0,0.2c0,0,0,0,0,0v0h0c0,0,0.1,0,0.2,0c0.6,0,1.4,0,2.2,0c1.6,0,3.5,0,4.9,0c0.3,0,0.8,0,1-0.1h9c0,0,0,0,0,0
				l1.2,0h0.1c0,0-0.4,0-0.1,0c0,0,0.2,0,0.5,0h1.9c0,0,0.1,0,0.1,0c0,0,0,0,0.1,0h1.6c0.1,0,0.1,0,0.2,0c0.1,0,0.2,0,0.3,0h7.1V94
				C101.8,84.2,94.1,72,92.7,69.8z M88.7,70.4C88.7,70.5,88.6,70.5,88.7,70.4C88.6,70.5,88.7,70.5,88.7,70.4z M78.8,74.1
				c0.3-0.1,0.5-0.1,0.8-0.2C79.3,73.9,79,74,78.8,74.1z M76.1,74.7c0.4-0.1,0.8-0.2,1.1-0.2C76.9,74.5,76.5,74.6,76.1,74.7z
				 M38.9,63.6c-0.3-0.4-0.5-0.8-0.8-1.2c-0.2-0.4-0.3-0.5-0.5-0.9l0,0c0,0-0.1-0.1-0.1-0.2c-0.1-0.1,0.1,0.2,0.1,0.2
				c-0.1-0.1-0.3-0.6-0.4-0.7c-0.1-0.1,0,0-0.1-0.1l0,0l0,0c0-0.1-0.1-0.1,0-0.2c0,0,0,0.1,0,0.1c0-0.1-0.2-0.3-0.2-0.4l0.1,0.1
				c-0.2-0.5-0.2-0.4-0.5-1.2l0,0c-0.1-0.3-0.1-0.2-0.2-0.6l0,0c0-0.1-0.1-0.1-0.1-0.2c0.1,0.1,0-0.2,0.1-0.1
				C36,58,36.1,58.2,35.9,58l0-0.1c-0.1-0.1-0.1-0.1-0.1-0.2c0.1,0.1,0.1-0.1,0.1,0c0-0.4-0.2-0.5-0.1-0.7c-0.2-0.1,0,0.3-0.1,0.2
				c0,0.1-0.1-0.1-0.2-0.2c0-0.1,0.2-0.2,0.2-0.5c0,0,0,0,0,0.1c0.1-0.1-0.1-0.2,0-0.3c-0.1-0.1,0-0.2-0.1-0.2l0,0.3
				c0-0.1-0.2-0.3-0.1-0.5c0,0,0.1,0.1,0.1,0.1c0.1-0.1,0-0.1,0.1-0.2c0.2,0,0,0.3,0.1,0.5c0.1-0.1-0.1-0.3,0.1-0.2
				c-0.2-0.1,0.1-0.3-0.1-0.5l0.1,0c0,0,0-0.1,0-0.2l0.1,0.1c-0.1-0.2,0.2-0.3,0.2-0.4c-0.1,0.3-0.2,0-0.3,0.1
				c-0.1-0.4,0.3-0.1,0.3-0.3c0,0-0.1,0-0.1,0c0,0,0.1,0,0.1,0c0-0.1-0.1-0.1-0.2-0.2c0.1,0.1,0-0.1,0-0.2l0.1,0.1
				c0.1,0-0.2-0.4,0-0.4l0.1,0.3l0-0.1l0.1,0.2c0-0.2,0-0.2,0-0.2c0-0.1-0.1-0.4-0.1-0.5c0.1,0.1,0,0.3,0.1,0.1c0,0.2,0,0.4,0,0.2
				l0,0.2c0.1,0.1,0.1,0,0.1,0c0,0,0,0,0,0c0-0.1,0-0.3,0.1-0.4c0,0.1,0,0.2,0,0.3c0,0,0-0.1,0.1-0.1c0,0.2,0,0.4-0.1,0.5
				c0-0.1,0-0.1,0.1-0.2c0,0.1,0,0.3,0,0.3c0,0.1,0,0,0.1-0.1c0.1-0.1,0.1-0.2,0.1-0.1c0,0,0-0.1,0.1-0.1c0,0.1-0.1,0.2,0.1,0.2
				c-0.1,0.1-0.1,0.2-0.2,0.3c0.1,0.1,0.2-0.4,0.4-0.2c0.2,0.1-0.2,0.2-0.2,0.3c0.2,0,0.5,0,0.4,0.3c-0.1,0-0.1-0.1-0.1-0.1
				l-0.1,0.2c-0.3,0-0.3-0.1-0.4,0.1c0.5-0.3,0.3,0.4,0.8,0.1l-0.1,0.1c0,0,0,0,0,0c-0.2,0.3,0.4-0.1,0.5,0.1c0,0.1-0.1,0.2-0.1,0.2
				l0.2,0.1c0,0.1-0.1,0.1-0.1,0l0.2,0.2l0,0c0.1,0,0.3,0,0.4,0c-0.1,0.1-0.1,0-0.1,0.1l0.2,0.1c-0.1,0.1-0.3,0.1-0.3,0
				c-0.5,0.4,0.2,0,0,0.5l-0.1-0.1c-0.3,0.2-0.1,0.3-0.3,0.5c0.1-0.1,0.4-0.6,0.6-0.5c0,0.1,0,0.1,0.1,0.2c-0.2,0.1-0.1,0.2-0.1,0.3
				l-0.3,0.1c0.1,0.1,0.3,0,0.4,0c0,0.1-0.2,0.3-0.4,0.4c0,0.2,0.3-0.3,0.5-0.1c0,0.2,0.1,0.3,0.4,0.4c-0.1,0.2-0.2,0-0.3,0.1l0.3,0
				c0,0-0.1,0-0.1,0.1c0.1,0.1,0.3-0.1,0.4,0c0.3-0.1-0.4,0.5,0.1,0.5c-0.1,0.1-0.2,0-0.3,0.1c0.3,0.2,0.3,0.1,0.7,0.2l-0.1,0.2
				c0.2-0.2,0.5-0.1,0.8-0.1c0,0,0,0,0,0c0,0,0,0,0,0.1c0,0,0,0-0.1,0l-0.1,0c0,0,0.1,0,0.1,0c0,0,0,0.1,0,0.1c-0.1,0-0.2,0-0.3,0
				l0.2-0.1c-0.2,0-0.4,0-0.6,0.1c0,0,0.1,0,0.1,0c-0.1,0-0.1,0-0.1,0c0,0,0,0,0.1,0l-0.3,0.2l0.1,0l-0.1,0.4c0.4,0.1,1,0.1,1.2,0.4
				c-0.3,0-0.4,0.1-0.7,0.2c0.3-0.2-0.2-0.2-0.2-0.4c0,0.1-0.1,0.1-0.2,0.1l0.4,0.2C40,61.1,40,61.2,40,61.3
				c0.4-0.2,0.4,0.1,0.6,0.2c-0.1,0.1-0.3,0.1-0.3-0.1c-0.3,0.3,0.6,0.1,0.4,0.3c0,0,0-0.1-0.1-0.1c0.2,0,0.1,0.3,0,0.3l0,0
				c0,0.3,0.3,0.8,0.6,0.7c0,0-0.4,0.1-0.5,0.1l0.9,0.1c0,0,0,0.1,0,0.1c-0.3,0.1-0.7,0.3-0.9,0.2c0,0.1,0,0.2,0.1,0.3
				c0-0.1,0.4-0.2,0.4-0.2c-0.3,0.3-0.1,0.2-0.3,0.4c0-0.1,0.5-0.2,0.5-0.1c-0.1,0-0.4,0.2-0.5,0.1l0.5,0.1c-0.1,0-0.4,0.1-0.5,0.2
				c0.1-0.1,0.1,0.2,0.1,0.3l0.1-0.1c0,0.3,0.7,0.1,0.7,0.4c-0.1,0-0.5,0.1-0.5,0.2c0.1,0,0.4,0,0.7,0c0,0.1,0.1,0.2,0.1,0.3
				c-0.3-0.1-0.6-0.1-0.8-0.2c-0.1,0.1-0.1,0.1-0.1,0.2c-0.1,0.1-0.2,0-0.2-0.1l0.1,0.4c0.2-0.1,0.3,0.2,0.5,0.1l-0.4-0.3
				c0.2-0.1,0.7,0,0.8,0.3c-0.1,0.1-0.4,0.1-0.5,0.1c0.1,0,0.2,0.2,0.2,0.2l-0.2-0.1c0,0.2,0.4,0.1,0.2,0.4c0,0.1-0.2,0.3-0.1,0.2
				c0.1-0.1,0.4-0.2,0.7-0.3c0,0.1,0,0.1,0.1,0.2l-0.1,0l0,0l0.1,0c0,0.1,0,0.1,0.1,0.2c-0.1,0.1-0.4,0-0.5,0.1c0.1,0,0.1,0,0.2,0
				c0,0.1-0.2,0-0.1,0.1c0.2,0,0.1,0.3,0.2,0c0.1,0.1,0,0.1,0.1,0.3c0.1-0.1,0.3,0,0.4,0.1c0,0,0,0.1,0,0.1c0,0,0,0,0,0
				c0.1,0.3,0,0.4,0.1,0.7c0,0,0,0.2-0.1,0.1c0,0,0.1,0,0.1,0.1c-0.1,0.2-0.1-0.2-0.2,0c0.1,0,0.2,0.2,0.3,0.3
				c0.1-0.1-0.1-0.3-0.2-0.4c0.1,0,0.2,0,0.2,0c0.1,0.3,0.2,0.5,0.2,0.8c0,0.1,0,0.1,0,0.2c-0.1-0.1-0.1-0.1-0.2-0.2c0,0,0,0,0,0
				l0,0c-0.1-0.1-0.1-0.1-0.1-0.2c0,0-0.1,0-0.1,0c-0.2-0.2-0.4-0.4-0.5-0.6l0,0l0,0c-0.1-0.1-0.1-0.1-0.2-0.2c0,0,0,0,0,0l-0.1-0.1
				c0,0,0,0,0,0c0,0,0.1,0,0,0c0,0,0,0-0.1,0c0,0-0.1-0.1-0.1-0.1c0,0,0,0,0,0c0,0,0,0,0,0c0-0.1-0.1-0.1-0.1-0.2c0,0,0,0,0,0
				c0,0,0,0,0,0C40.8,66.1,39.7,64.9,38.9,63.6z M38.4,57.3c-0.1,0-0.2,0-0.1-0.1C38.6,57.1,38.5,57.2,38.4,57.3z M40.2,60.1
				c0,0,0,0.1,0,0.1C40.1,60.2,40.1,60.1,40.2,60.1z M47.7,57.3C47.7,57.3,47.8,57.3,47.7,57.3C47.8,57.3,47.8,57.3,47.7,57.3
				c0.6-1.4,1.4-2.6,2.7-3.4c0,0.1,0,0.2,0,0.3c0,0,0,0.1,0,0.1c0,0.1-0.1,0.4,0,0.6c0,0.1,0,0,0,0c0,0.1,0,0.1,0,0.3l0,0
				c0,0.4,0,0.5-0.1,1l0.1,0c0,0.1,0,0.1-0.1,0.2c0.1,0.1,0-0.3,0.1-0.2c-0.2,0.1,0,0.6-0.3,0.7c0,0.1,0.1,0,0.1,0.1l-0.1,0l0.1,0
				c0,0.1-0.1,0.1-0.2,0.1c0,0,0-0.1,0-0.1c-0.1,0.1,0,0.3-0.1,0.4l0.1-0.1c0,0.4-0.2,0.8-0.1,1.2l0.1,0c0.1,0.3-0.1,0.2-0.1,0.5
				l0,0c0.1,0.1,0.1,0.2,0,0.2c-0.1-0.1-0.2,0.1-0.2,0c0.1,0.3,0.1,0.2,0.3,0.4l-0.1,0c0.1,0.1,0.1,0.1,0.1,0.3
				c-0.1-0.1-0.2,0.1-0.3-0.1c-0.3,0.3,0.2,0.5-0.3,0.6c0.3,0.2,0.3-0.2,0.3-0.1c0.1-0.1,0.2,0.2,0.2,0.3c0,0.1-0.5,0.1-0.5,0.3
				c0,0,0,0,0-0.1c-0.1,0.1,0.1,0.2-0.1,0.3c0.2,0.1-0.1,0.1,0.2,0.2l0-0.2c0,0.1,0.3,0.3,0.1,0.5c-0.1,0-0.1-0.1-0.1-0.2
				c-0.1,0,0,0.1-0.1,0.2c-0.3-0.1,0-0.3-0.2-0.5c-0.1,0,0.1,0.3-0.2,0.2c0.4,0.2-0.1,0.2,0.1,0.5l-0.2,0c0,0,0.1,0.1,0.1,0.2
				l-0.2-0.1c0.2,0.2-0.2,0.2-0.2,0.4c0.1-0.3,0.2,0,0.4-0.1c0.2,0.4-0.5,0.1-0.6,0.5c0-0.1,0.2-0.2,0.2-0.1
				c-0.1,0.1-0.2,0.1-0.3,0.2c0,0.3,0.2,0,0.3,0.1c-0.3,0,0.1,0.1,0.1,0.3l-0.2,0c-0.2,0.3,0.4,0.2,0.2,0.4l-0.2-0.2l0,0.2l-0.2-0.1
				c0.1,0.2,0.1,0.2,0,0.3c0.2,0,0.4,0.1,0.3,0.2c-0.1,0.1-0.2-0.1-0.2,0.1c-0.1-0.1-0.3-0.2,0-0.2l-0.2-0.1
				c-0.2,0.1-0.1,0.2-0.1,0.3c0,0,0,0,0.1-0.1l0.2,0.3c-0.1,0-0.1,0-0.2-0.1c0,0.1,0.1,0.1,0.1,0.2c-0.2-0.1-0.3-0.1-0.4-0.2
				l0.1,0.3c-0.1,0-0.2,0.1-0.3,0c-0.1,0.1,0.2,0.4,0,0.6c0,0,0.1,0,0.1,0.1c-0.1,0.1-0.2,0.2-0.2,0.3c0,0,0-0.1-0.1-0.1
				c0,0-0.5,0.1-0.5,0.1c0.4-0.2,0.2-0.1,0.5-0.3c-0.1,0.1-0.6,0-0.6-0.1c0.1,0,0.5,0,0.6,0l-0.5-0.2c0.1,0.1,0.4,0,0.6-0.1
				c-0.1,0,0-0.2-0.1-0.3l-0.1,0.1c0.1-0.3-0.7-0.2-0.7-0.5c0.1,0,0.6,0.1,0.7-0.1c-0.1,0-0.5-0.1-0.8-0.2c0-0.1,0-0.2,0-0.3
				c0.3,0.1,0.7,0.3,0.9,0.4c0.1-0.1,0.2,0,0.2-0.2c0.1,0,0.2,0.1,0.2,0.1l0.1-0.3c-0.3,0-0.3-0.3-0.5-0.2l0.3,0.4
				c-0.3,0-0.8-0.2-0.8-0.5c0.1-0.1,0.5,0.1,0.6,0.1c-0.1,0-0.2-0.2-0.1-0.2l0.2,0.1c0.1-0.1-0.4-0.2-0.1-0.4c0-0.1,0.4-0.1,0.2-0.2
				c-0.2,0-0.6,0-1,0c0-0.1,0-0.1,0-0.2l0.1,0l0,0l-0.1,0c0-0.1,0-0.1,0-0.2c0.2,0,0.5,0.2,0.7,0.1c-0.1,0-0.2-0.1-0.2-0.1
				c0.1-0.1,0.2,0,0.2-0.1c-0.3,0,0-0.3-0.2-0.1c-0.1-0.1,0.1-0.1,0.1-0.3c-0.1,0-0.3-0.1-0.5-0.2c0-0.1,0-0.1,0-0.2c0,0,0,0,0,0
				c0-0.3,0.2-0.4,0.2-0.6c0.1,0,0.2-0.1,0.3-0.1c0,0-0.1-0.1-0.1-0.2c0.2-0.1,0,0.2,0.3,0.1c-0.1,0-0.2-0.2-0.3-0.3
				c-0.2,0-0.1,0.2,0,0.3c-0.1,0-0.2-0.1-0.3-0.1c0-0.3,0.1-0.5,0.1-0.8c0.1-0.2,0.1-0.6,0.3-0.8c0,0-0.1-0.1-0.1-0.1
				c0.1-0.3,0.2-0.7,0.3-1c0,0,0,0,0.1,0l0-0.1c0,0,0,0,0,0c0,0,0.1,0.1,0.1,0c0,0-0.1-0.1-0.1-0.1c0-0.1,0-0.1,0.1-0.1c0,0,0,0,0,0
				c0,0,0,0,0,0C47.7,57.4,47.7,57.3,47.7,57.3z M47.7,65.4C47.7,65.4,47.7,65.4,47.7,65.4C47.7,65.4,47.7,65.4,47.7,65.4L47.7,65.4
				L47.7,65.4L47.7,65.4c0,0,0,0.1,0,0.1l-0.1,0C47.7,65.5,47.7,65.5,47.7,65.4l-0.6,0.1l0.3,0l0,0c0,0.2,0.4,0,0.5,0.3
				c0,0.2-0.3,0-0.4,0c0.1,0.1,0.4,0.4,0.1,0.5c0,0,0-0.1,0-0.1c0,0,0,0,0,0l0,0c0-0.2-0.2-0.4-0.4-0.4c0,0,0,0,0,0
				c0.1,0,0.5,0,0.5,0l-0.9-0.3c0,0,0-0.1,0-0.1C47.1,65.3,47.6,65.3,47.7,65.4z M47.5,67.7c-0.1-0.1-0.2-0.2-0.2-0.2
				c-0.5-0.2-0.1-0.1-0.2,0c-0.1-0.1-0.2-0.2-0.3-0.3c0.2,0,0.3,0,0.5,0c0,0,0,0.1,0,0.1c0,0-0.1,0-0.1,0l0,0.1l0,0
				C47.4,67.5,47.6,67.6,47.5,67.7c0-0.1,0-0.1-0.1-0.1L47.5,67.7C47.5,67.7,47.5,67.7,47.5,67.7z M47.5,66.7L47.5,66.7
				C47.4,66.7,47.4,66.7,47.5,66.7C47.4,66.7,47.4,66.7,47.5,66.7z M47.5,67c0.1,0,0.1,0.1,0.1,0.1C47.6,67.1,47.5,67,47.5,67z
				 M83.5,72.5c0.3-0.1,0.7-0.2,1-0.4C84.1,72.3,83.8,72.4,83.5,72.5z M85.7,71.7l1.6-0.6C86.8,71.2,86.3,71.4,85.7,71.7z
				 M83.7,72.4c0,0-0.1,0-0.1,0.1C83.3,72.6,83.6,72.5,83.7,72.4z M82,73.1c-0.3,0.1-0.5,0.2-0.8,0.3C81.5,73.2,81.7,73.2,82,73.1z
				 M73.3,75c-0.2,0-0.4,0-0.7,0C73.2,75,73.7,75,73.3,75z M64.1,69.7c-0.1-0.3-0.1-0.4-0.1-0.5C64,69.4,64.1,69.5,64.1,69.7z
				 M35.7,79.6c-0.2,0.5-0.5,0.5-1.1,0.8C34.9,80.1,35.4,79.6,35.7,79.6z M11.5,95.1c-0.3,0.2-0.7,0.3-1.1,0.4
				C10.6,95.3,11,95.2,11.5,95.1z"/>
			<path class="st0" d="M36.8,54.9L36.7,55C36.7,55,36.8,55,36.8,54.9z"/>
			<path class="st0" d="M35.8,56L35.8,56C35.8,56.1,35.8,56.1,35.8,56z"/>
			<polygon class="st0" points="40.7,63.1 40.7,63.1 40.7,63.1 			"/>
			<path class="st0" d="M40.5,62.9c0.3,0,0.2,0.1,0.2,0.2l0.5-0.2L40.5,62.9z"/>
			<polygon class="st0" points="36.8,54.8 36.8,54.8 36.8,54.9 			"/>
			<polygon class="st0" points="42.8,68.3 42.7,68.2 42.7,68.2 			"/>
			<path class="st0" d="M43.1,68.5C43.1,68.5,42.9,68.4,43.1,68.5C43.1,68.5,43.1,68.7,43.1,68.5z"/>
			<path class="st0" d="M41.2,64.6c0.1,0,0-0.2,0.1-0.1c-0.1-0.1-0.1-0.1-0.3,0C41,64.7,41.2,64.5,41.2,64.6z"/>
			<path class="st0" d="M38,57.8L38,57.8c0.1-0.1,0.1-0.1,0.1-0.2L38,57.8z"/>
			<polygon class="st0" points="37.6,56.4 37.8,56.2 37.6,56.4 			"/>
			<path class="st0" d="M36.8,55.5c0,0,0.1,0.1,0.1,0.1C36.8,55.5,37,55.3,36.8,55.5z"/>
			<path class="st0" d="M47.8,64.9l-0.2-0.1C47.6,64.9,47.7,64.9,47.8,64.9z"/>
			<path class="st0" d="M49.5,61.4C49.5,61.4,49.5,61.4,49.5,61.4C49.5,61.3,49.5,61.3,49.5,61.4z"/>
			<polygon class="st0" points="47.9,64.9 47.9,64.9 47.8,64.9 			"/>
			<polygon class="st0" points="47.4,58.3 47.4,58.4 47.4,58.3 			"/>
			<path class="st0" d="M47.4,59.7c0,0-0.1,0-0.1,0L47.4,59.7L47.4,59.7z"/>
			<path class="st0" d="M47.5,60.2c-0.1,0-0.1-0.2-0.2-0.1C47.4,60.2,47.5,60.4,47.5,60.2z"/>
			<path class="st0" d="M47.8,64c-0.1,0-0.1,0.1-0.2,0.1c0.1,0.1,0.1,0.2,0.4,0.1C48.1,64,47.7,64.1,47.8,64z"/>
			<path class="st0" d="M39.1,76.9l0,0.1C39.2,76.9,39.3,76.8,39.1,76.9z"/>
			<path class="st0" d="M14.2,93.4c-0.2,0.1-0.5,0.2-1,0.3L14.2,93.4z"/>
			<path class="st0" d="M32,58.3c-0.1-0.2-0.2-0.4-0.3-0.6C31.9,58.8,32,58.3,32,58.3z"/>
			<path class="st0" d="M65.4,72.2l0.1,0.1C65.5,72.4,65.5,72.3,65.4,72.2z"/>
			<path class="st0" d="M59.8,96.7L59.8,96.7C59.9,96.7,59.9,96.7,59.8,96.7z"/>
			<path class="st0" d="M48,52C48,52,48.1,51.9,48,52C48.5,51.6,48.3,51.7,48,52z"/>
			<path class="st0" d="M22.2,103.7L22.2,103.7C22.2,103.7,22.2,103.7,22.2,103.7L22.2,103.7z"/>
			<path class="st0" d="M20.4,103.8c0.8-0.2,1.2-0.2,1.8-0.1l-0.6-0.5L20.4,103.8z"/>
			<path class="st0" d="M54.1,62c0.1,0,0.1-0.1,0.2-0.1C54.2,61.9,54.1,61.9,54.1,62z"/>
			<path class="st0" d="M56.5,60.8C56.5,60.8,56.5,60.8,56.5,60.8C56.6,60.8,56.6,60.8,56.5,60.8L56.5,60.8z"/>
			<path class="st0" d="M53,51.1c0,0.1,0.1,0.2,0.1,0.3C53.1,51.3,53.1,51.2,53,51.1z"/>
			<path class="st0" d="M13.2,93.8c0.1,0,0.2,0,0.2,0C13.5,93.8,13.5,93.7,13.2,93.8z"/>
			<path class="st0" d="M32.1,58.5L32.1,58.5c0-0.1,0-0.1-0.1-0.1L32.1,58.5z"/>
			<path class="st0" d="M53.5,99.2c-0.3,0.1-0.5,0.1-0.7,0.1C52.8,99.3,53,99.3,53.5,99.2z"/>
			<polygon class="st0" points="80,100.6 81.2,100.6 80.9,100.6 			"/>
			<path class="st0" d="M67.7,100.7c0-0.4,0-0.5,0.1-0.7l-0.1,0L67.7,100.7z"/>
			<path class="st0" d="M67.6,96.4c0,0.1,0.1,1.5,0.1,0.2C67.7,96.5,67.6,94.7,67.6,96.4z"/>
			<path class="st0" d="M35.1,103.1c-0.9,0.2-1.5,0.2-1,0.4c1.6-0.1,0.4-0.3,1.8-0.3C36.3,103,34.7,103.2,35.1,103.1z"/>
			<path class="st0" d="M35.1,103.1c0.1,0,0.3-0.1,0.5-0.1C35.3,103,35.2,103.1,35.1,103.1z"/>
			<path class="st0" d="M32,81.6c0.2,0,0.4-0.2,0.8-0.4L32,81.5L32,81.6z"/>
			<path class="st0" d="M42.4,74.2L42.4,74.2l-0.4,0l0,0C42.1,74.2,42.3,74.2,42.4,74.2L42.4,74.2z"/>
			<path class="st0" d="M35.6,66.5c0.3,0.4,0.6,0.8,0.9,1.2C35.9,66.9,35.8,66.2,35.6,66.5z"/>
		</g>
		<g>
			<g>
				<g>
					<polygon class="st4" points="15.8,76.5 23.3,103.3 28.8,103.3 32.2,82 					"/>
					<g>
						<path class="st0" d="M15.5,77.7c-0.1-0.1-0.1,0.2-0.2,0.2C15.5,77.9,15.5,77.6,15.5,77.7z"/>
						<polygon class="st0" points="17.3,77.8 17.2,77.9 17.5,77.8 						"/>
						<path class="st0" d="M18.9,78.3c0-0.4-0.6-0.1-0.8-0.3l0-0.1l-0.2,0.2C18.1,78.2,18.6,78.2,18.9,78.3z"/>
						<path class="st0" d="M19.4,79.3c0-0.1,0.2-0.1-0.2-0.1c0,0,0,0,0,0C19.3,79.3,19.4,79.3,19.4,79.3z"/>
						<path class="st0" d="M19.3,79.3C19.1,79.2,19.4,79.4,19.3,79.3L19.3,79.3z"/>
						<path class="st0" d="M20.1,79.5l-0.3,0c0,0.1,0.2,0.2,0.1,0.2C20.2,79.7,20.2,79.6,20.1,79.5z"/>
						<path class="st0" d="M20.4,79.3l-0.1,0C20.2,79.3,20.3,79.3,20.4,79.3z"/>
						<path class="st0" d="M20,79.3l0.3,0c0-0.1,0-0.2-0.1,0C20.2,79.2,20.1,79.3,20,79.3z"/>
						<path class="st0" d="M19.8,79.2c-0.1-0.1-0.2-0.2,0-0.3C19.4,78.9,19.4,79.1,19.8,79.2z"/>
						<path class="st0" d="M19,78l-0.1-0.2l-0.2,0.1C18.8,77.9,19,78.1,19,78z"/>
						<path class="st0" d="M21.4,80.1c0-0.1,0-0.2,0-0.3l-0.2,0C21.2,79.9,21.4,80,21.4,80.1z"/>
						<path class="st0" d="M21.4,79.8l0.3,0C21.4,79.6,21.4,79.7,21.4,79.8z"/>
						<polygon class="st0" points="20.5,78.9 20,79 20.6,78.9 						"/>
						<polygon class="st0" points="22.3,80.4 22.1,80.5 22.4,80.3 						"/>
						<path class="st0" d="M22.9,80.6c-0.1,0.1,0.1,0.3-0.1,0.3c0.2,0,0.4,0,0.5-0.1C23.2,80.8,23,80.7,22.9,80.6z"/>
						<path class="st0" d="M23.6,80.7c-0.1,0-0.2,0-0.3,0.1C23.4,80.8,23.5,80.8,23.6,80.7z"/>
						<path class="st0" d="M22,79.9c0,0,0,0.2,0.1,0.3L22,79.9L22,79.9z"/>
						<path class="st0" d="M22.1,79.9L22.1,79.9c0.1,0,0.2,0.1,0.2,0.1C22.3,80,22.2,80,22.1,79.9z"/>
						<path class="st0" d="M22,79.9L22,79.9C22,79.9,22,79.9,22,79.9z"/>
						<path class="st0" d="M21.1,79.3c0.2-0.1,0.5-0.1,0.3-0.4C21.2,79.1,21.4,79.2,21.1,79.3z"/>
						<path class="st0" d="M22,79.6l-0.2-0.1c0,0.1,0,0.1-0.1,0.2L22,79.6z"/>
						<polygon class="st0" points="22.1,79.6 22,79.6 22.1,79.6 						"/>
						<path class="st0" d="M23.2,80.4c0.1-0.1,0.3,0,0.4,0c-0.1-0.1-0.3-0.2-0.4-0.2C23.2,80.2,23.1,80.3,23.2,80.4z"/>
						<path class="st0" d="M22.7,80.1L22.7,80.1C22.7,80.1,22.7,80.1,22.7,80.1z"/>
						<polygon class="st0" points="25,80.8 24.9,80.8 24.9,80.8 						"/>
						<path class="st0" d="M23.2,80.1c-0.1-0.1-0.2,0-0.3,0C23,80.1,23.1,80.1,23.2,80.1C23.2,80.1,23.2,80.1,23.2,80.1z"/>
						<path class="st0" d="M24,80.7c0-0.1-0.1-0.1-0.2-0.2C23.9,80.6,24,80.8,24,80.7z"/>
						<path class="st0" d="M22.7,80.2L22.7,80.2C22.7,80.3,22.7,80.2,22.7,80.2z"/>
						<path class="st0" d="M22.7,80.2c0.1,0,0.1,0,0.2-0.1C22.9,80.1,22.8,80.1,22.7,80.2C22.7,80.1,22.7,80.2,22.7,80.2z"/>
						<path class="st0" d="M25.8,79.7c-0.1,0.2-0.4,0.3-0.6,0c-0.3,0.1-0.3,0.7-0.2,1.1c0-0.1,0.1-0.2,0.3-0.2
							c-0.1-0.1-0.5-0.4-0.2-0.5c0.4,0,0.3,0.2,0.4,0.3c-0.1-0.3,0.5-0.2,0.6-0.6l-0.3,0C25.7,79.8,25.9,79.8,25.8,79.7z"/>
						<path class="st0" d="M24.5,80.6l-0.1,0c0.1,0.1,0.2,0.2,0.3,0.4c0.2,0,0.3-0.1,0.3-0.1L24.5,80.6L24.5,80.6z"/>
						<path class="st0" d="M23.9,80.4c0.1-0.2,0.4-0.2,0.3-0.4c-0.3-0.1-0.3,0.1-0.5,0.1C24.3,80.2,23.6,80.2,23.9,80.4
							c-0.1,0-0.2,0-0.3-0.1c0.1,0.1,0.2,0.1,0.2,0.2l0,0h0L23.9,80.4C23.8,80.5,23.8,80.5,23.9,80.4L23.9,80.4
							C23.9,80.5,23.9,80.5,23.9,80.4C24,80.5,23.9,80.5,23.9,80.4L23.9,80.4l-0.1,0.1l0.5,0.1C24.3,80.5,24.1,80.5,23.9,80.4z"/>
						<path class="st0" d="M21.8,78.6C21.8,78.6,21.8,78.6,21.8,78.6C21.8,78.6,21.8,78.6,21.8,78.6z"/>
						<path class="st0" d="M21.9,78.8c0,0-0.1,0.1-0.2,0c-0.1-0.1,0-0.1,0-0.2c-0.1,0-0.3,0.1-0.1,0.2l0,0c0.2,0.1,0.3,0.5,0.3,0.5
							C22,79.2,22,79,21.9,78.8z"/>
						<path class="st0" d="M22.9,79.6l0.4,0l-0.1-0.2l0,0.1C23,79.4,23,79.5,22.9,79.6z"/>
						<polygon class="st0" points="25,80.9 24.8,81.1 25.2,80.9 						"/>
						<polygon class="st0" points="25.5,81.1 25.4,81.3 25.6,81.2 						"/>
						<path class="st0" d="M25.5,104.5l-0.1,0.1C25.4,104.5,25.4,104.5,25.5,104.5z"/>
						<path class="st0" d="M26.4,104.5L26.4,104.5C26.4,104.4,26.3,104.5,26.4,104.5z"/>
						<path class="st0" d="M29.9,88.8c-0.2,0.2-0.5,0.3-0.3,0.3l0.2,0C29.8,89,29.8,88.9,29.9,88.8z"/>
						<path class="st0" d="M29.7,98.3L29.7,98.3c0-0.1-0.1-0.1-0.1-0.2C29.6,98.1,29.6,98.2,29.7,98.3z"/>
						<path class="st0" d="M30.5,98.5l-0.2,0.2C30.4,98.7,30.5,98.6,30.5,98.5z"/>
						<path class="st0" d="M21.2,100.9l-0.2-0.1C21,101.1,21.1,100.9,21.2,100.9z"/>
						<path class="st0" d="M30.6,82.7c0,0.1,0,0.1,0,0.1C30.7,82.7,30.7,82.6,30.6,82.7z"/>
						<path class="st0" d="M25.8,102.2c-0.1,0-0.1,0.1-0.1,0.1C25.8,102.3,25.8,102.2,25.8,102.2z"/>
						<path class="st0" d="M30.7,82.9C30.8,82.9,30.8,82.9,30.7,82.9c0,0-0.1,0-0.1,0C30.6,82.9,30.5,83,30.7,82.9z"/>
						<path class="st0" d="M16.5,83.4C16.5,83.4,16.5,83.4,16.5,83.4C16.4,83.4,16.4,83.4,16.5,83.4z"/>
						<path class="st0" d="M17.1,77.8c0,0,0.1,0.1,0.1,0.2C17.2,77.9,17.2,77.9,17.1,77.8z"/>
						<path class="st0" d="M27.6,81.9C27.5,81.9,27.6,81.9,27.6,81.9L27.6,81.9z"/>
						<path class="st0" d="M27.3,80.9C27.4,80.9,27.4,80.9,27.3,80.9C27.4,80.9,27.4,80.9,27.3,80.9z"/>
						<path class="st0" d="M32.1,83.1L32.1,83.1C32.1,83.1,32.1,83.1,32.1,83.1z"/>
						<path class="st0" d="M27.5,81.7c0,0,0.1,0.1,0.1,0.1C27.6,81.8,27.5,81.8,27.5,81.7z"/>
						<path class="st0" d="M27.5,81.8C27.4,81.8,27.4,81.8,27.5,81.8C27.3,81.8,27.4,81.9,27.5,81.8z"/>
						<path class="st0" d="M27.8,81.9c-0.1,0-0.1,0-0.2-0.1c0,0,0,0,0,0C27.6,81.9,27.7,81.9,27.8,81.9z"/>
						<path class="st0" d="M19.6,92.6C19.6,92.6,19.6,92.6,19.6,92.6C19.5,92.5,19.6,92.5,19.6,92.6z"/>
						<polygon class="st0" points="31.6,92.2 31.6,92.2 31.6,92.2 						"/>
						<path class="st0" d="M31.7,92.6c-0.2-0.2-0.2-0.3-0.1-0.4l-0.6,0L31.7,92.6z"/>
						<path class="st0" d="M22.4,104.4L22.4,104.4l0.3,0.3c-0.2,0.1-0.4,0.1-0.6,0.2c-0.2-0.3-0.2-0.4-0.3,0.1
							c0.1-0.1,0.1-0.1,0.2-0.1c0.7-0.3,2,0.1,2.2-0.5l0.3,0.1c-0.1,0-0.1,0-0.2,0c0.7,0.3,0.4-0.5,0.9-0.4c0.2,0.1,0.3,0.1,0.2,0.2
							l0.4-0.2c0.1,0,0.1,0.1,0,0.1l0.6-0.1l0,0c0.1-0.1,0.3-0.3,0.4-0.3c0.1,0.1-0.1,0.1,0,0.2l0.3-0.2c0.1,0.2-0.1,0.3-0.4,0.3
							c0.2,0.3,0.2,0.3,0.3,0.2c0.1-0.1,0.3-0.2,0.9,0l-0.5,0.1c0.4,0.4,0.8,0.2,1.6,0.5c-0.3-0.1-1.5-0.6-0.9-0.8
							c0.2,0.1,0.4,0.1,0.6-0.1c0.1,0.2,0.4,0.2,0.8,0.2l0.2,0.3c0.2,0,0.2-0.1,0.3-0.2c0-0.1-0.1-0.3-0.1-0.5
							c0.1-0.4,0.3-0.3,0.5-0.3c0.2-0.7-0.4,0.2-0.3-0.7c0.1-0.3,0.1-0.5,0.1-0.8c0-0.3,0-0.6-0.1-0.8c0.1-0.2,0.2,0.1,0.3,0
							l-0.2-0.3c0-0.1,0.1,0,0.1,0c-0.1-0.2-0.3-0.1-0.3-0.4c-0.3-0.1,0.6-0.5,0.3-1c0.1-0.1,0.2,0.1,0.3,0.1
							c-0.2-0.6-0.1-0.5-0.4-0.9l0.3-0.3c-0.3,0.2-0.5-0.2-0.7-0.5c-0.1,0.1-0.2,0.1-0.3,0.2L29.3,98c0.1,0,0.2,0,0.3,0.1L29.5,98
							c0.1-0.1,0.3,0,0.5,0.1l-0.2,0.1c0.2,0.1,0.4,0.3,0.5,0.3c0,0-0.1-0.1-0.1-0.2c0,0,0.1,0.1,0.1,0.1c0,0,0-0.1-0.1-0.2l0.4-0.1
							l-0.1,0l0.3-0.6c-0.3-0.5-0.7-1-0.8-1.7c0.2,0.2,0.4,0.1,0.7,0.2c-0.4,0.1,0,0.6-0.1,0.9c0.1-0.2,0.2-0.1,0.2-0.1l-0.2-0.7
							c0.2,0.1,0.2-0.1,0.3-0.3c-0.5,0-0.2-0.5-0.4-0.8c0.2,0,0.3,0.1,0.2,0.4c0.4-0.3-0.5-0.5-0.1-0.8c0,0.1,0,0.1,0,0.2
							c-0.1-0.2,0.1-0.6,0.2-0.5l0,0.1c0.1-0.5,0.3-1.6-0.1-1.7c0.1,0,0.5,0.1,0.6,0.2l-1.2-1.2c0.3,0.1,1.2,0,1.4,0.4
							c0.1-0.1,0.2-0.3,0.1-0.5c-0.1,0.1-0.5,0.1-0.6,0c0.4-0.3,0.2-0.2,0.6-0.5c-0.1,0.1-0.6-0.1-0.6-0.3c0.1,0,0.6,0.1,0.6,0.2
							l-0.5-0.6c0.1,0.1,0.5,0.1,0.6,0c-0.1,0,0.1-0.4,0-0.6L31.8,90c0.2-0.5-0.7-0.7-0.6-1.2c0.1,0.1,0.7,0.3,0.8,0
							c-0.3-0.2-1.3-0.8-1.4-1.3l0.2-0.1L30.7,87c0.4,0.3,1.2,1.1,1.5,1.5c0.2-0.2,0.2,0,0.2-0.3c0.2-0.1,0.2,0.2,0.2,0.3l0.2-0.7
							c-0.3,0-0.2-0.6-0.5-0.6l0.2,0.9c-0.3,0-0.9-0.6-0.7-1.1c0.2-0.1,0.6,0.2,0.7,0.2c-0.1-0.1-0.1-0.5,0-0.6l0.1,0.2
							c0.2-0.3-0.4-0.5,0-0.8c0-0.1,0.5-0.3,0.3-0.3c-0.4,0.1-1.6,0-1.8-0.2c0,0,0.5-0.6,0.7-0.7c0.3-0.2,0.7,0.4,0.9,0.3
							c-0.1,0-0.2-0.1-0.2-0.2c0.1-0.1,0.3,0.1,0.3-0.2c-0.3-0.1,0.1-0.6-0.3-0.2c-0.1-0.3,0.1-0.3,0.2-0.6
							c-0.2,0.1-0.7-0.4-0.7-0.6c0.1,0,0.2-0.1,0.3-0.1c0.1-0.4,0.3-0.8,0.4-1.2c-0.1,0-0.2-0.1-0.3-0.1c0-0.1-0.2-0.2,0.1-0.3
							c-0.1,0-0.3,0.1-0.5,0c-0.2-0.4,0.5,0.1,0.4-0.3c-0.2,0.1-0.7,0-1,0.1c-0.1,0.3,0.5,0.2,0.9,0.2c-0.4,0.3-1.1,0.5-1.5,0.6
							c-0.4,0-0.1-0.3-0.1-0.3c-0.7-0.3-0.9,0.5-1.4,0c-0.2-0.3,0.2-0.5,0.2-0.7c0.4,0,0.5,0.3,0.7,0.4l-0.2-0.2
							c0.1,0,0.4,0,0.5,0.1c-0.1-0.3-1.3-0.5-1.8-0.9c-0.1,0-0.3,0.1-0.3,0.2l0.2,0c0.1,0.3-0.4,0.2-0.2,0.3c-0.3,0.1-0.7,0.2-1,0
							l0-0.3c0,0.1,0.2,0.2,0.3,0.2c-0.2,0.1-0.4-0.6-0.7-0.2l0.2,0.3c-0.3,0.1-0.7,0.3-1,0.1c0,0.3,0.1,0,0.2,0.4
							c-0.1-0.5,0.8,0.3,0.6-0.3c0.1,0.5,0.3,0.3,0.5,0.7c0-0.1,0-0.2,0.2-0.1c0,0,0.1,0,0.1-0.1l0,0l0,0c0,0,0,0,0,0
							c0-0.1-0.1-0.1-0.1-0.2c0.2-0.2,0.6,0,0.8-0.1c0.1,0.1-0.1,0.1,0,0.2l0.3-0.1c0,0.2,0.3,0.5-0.1,0.5l0.3,0.1
							c0.2,0.2,0.4,0.3,0.6,0.3c0.1,0.1,0.5-0.1,0.3,0l0.6,0l0,0.1c0.3,0.1,0.4,0,0.5,0c0.1,0,0.3,0.1,0.2,0.2l0.1,0
							c0,0,0,0.1,0,0.2l-0.2,0.1c0.1,0.1-0.2,0.2,0,0.2c-0.1,0-0.2,0-0.2,0.1c-0.1,0.1-0.1,0.3-0.1,0.4c0,0.3,0,0.6-0.1,0.8l0.2,0.1
							c-0.1,0.3,0,0.6,0,0.9l0.2,0c0.1,0.3-0.3,0.7-0.3,1.2c-0.1,0,0-0.2,0-0.2c-0.6,0.5,0.2,1.2-0.3,1.7c0.1,0.1,0,0.2-0.1,0.3
							c0,0,0,0,0,0l0,0.1c0,0.1-0.1,0.1-0.1,0.2c0.1,0,0.1-0.1,0.1-0.1c0,0.1,0,0.3,0,0.4l-0.2,0c0,0,0,0,0,0
							c-0.1,0.1,0.1,0.1,0.3,0.1c0,0.1,0.1,0.2,0.1,0.2c-0.4,0.1,0.1,0.4-0.4,0.5c0.2,0.1,0,0.8,0.4,0.9c-0.1,0-0.1,0-0.1,0
							c-0.1,0.2-0.1,0.3-0.1,0.5l-0.3,0l0.3,0.4c-0.2,0.2-0.3,0.3-0.5,0c0.3,0.6,0.1,0.4,0.3,0.9l-0.2-0.1c0,0.2,0.2,0.5,0,0.5
							c-0.4,0.3-0.3,1.7-0.8,2.6c0.6-0.1-0.3,0.4,0.1,0.5c-0.1,0-0.2,0.1-0.3,0c0.1,0.5-0.3,0.7,0,1c-0.1,0-0.2-0.1-0.3-0.1
							c0,0,0.1,0.2,0,0.2c-0.1,0-0.1-0.1-0.1-0.2c-0.1,0.5,0.4,0.6,0.7,0.7c-0.2,0.2-0.2,0.3,0,0.5c-0.1,0.1-0.3,0.2-0.3-0.1
							c0,0.2-0.3,1,0,1c-0.1,0-0.1,0.2,0,0.3c-0.1,0.4-0.1,0.4-0.1,0.8l0.1-0.1c0.4,0.2,0,0.3,0,0.6l0,0c-0.4,0.6,0.1,0.4-0.3,0.8
							l0.2,0c0.2,0.1,0.1,0.2,0,0.3c-0.1,0.1-0.3,0.1-0.2,0.4c0,0,0.1,0,0.1,0c0.1,0.2-0.3,0.1-0.6-0.1c-0.1-0.1-0.2-0.2-0.2-0.2
							c0,0,0-0.1,0-0.1c-0.4-0.3,0.2,0.3,0.1,0.4c-0.1-0.2-0.2-0.4-0.3-0.5c-0.1-0.1,0,0.5-0.6,0.2c0.1,0.1,0.2,0.3,0,0.4
							c-0.3,0-0.8-0.5-1.1-0.1c0,0-0.1-0.1-0.1-0.1c-0.2,0.1-0.7,0.2-0.9,0.4c-0.1-0.4-0.2-0.3-0.5-0.2c-0.2,0.1-0.5,0.2-0.3-0.2
							l-0.1,0l-0.1-0.3l0.1,0c0-0.2-0.2-0.2-0.4-0.3c0-0.1,0.1-0.1,0.1-0.1c0-0.6-0.1-0.7-0.6-1.1l0.2-0.1c-0.2-0.1,0.1-1-0.3-1.5
							c0,0,0.1,0,0.1,0c-0.5-0.6,0.2-1.8-0.7-1.9l-0.3-0.4c0.1,0.6-0.4,0-0.5,0.3c-0.1-0.2,0.1-0.7,0.2-0.4l0,0.1
							c0.5,0,0-0.8,0.3-0.8c-0.4-1.2-0.4-2.4-0.7-3.5L21,92.6l-0.1-0.4c0.1-0.1,0.2-0.2,0.3,0.1c0.2-0.2-0.3-0.4-0.4-0.4
							c0-0.6,0.5,0.1,0.4-0.1l-0.1-0.2l0,0.1c-0.2-0.1-0.3-0.1-0.4-0.4c0-0.2,0.2-0.2,0.2-0.3c0,0,0,0,0-0.1l-0.1-0.5l-0.2,0.3
							c-0.2-0.2-0.1-0.5-0.4-0.1c0.4-0.5-0.3-1.8-0.2-2.1c-0.3-0.2-0.4-0.5-0.4-0.9c0,0.1-0.3,0.2-0.4-0.1c0.7-0.1,0.1-0.7,0.5-1
							c-0.2,0.3-0.3-0.9-0.7-0.4c0-0.3,0.2-0.1,0.3-0.3c-0.4-0.6-0.2-1.4-0.5-2.2c-0.1,0-0.2,0.2-0.3,0l0.3-0.5
							c-0.1-0.1-0.5,0-0.3-0.4c-0.1,0.1-0.1,0.1-0.2,0.1c0-1.6-1.2-3-0.9-4.7c-0.1,0.3-0.2,0.1-0.2,0c0,0.1-0.2,0.1-0.3,0.1l0.1-0.7
							c-0.3,0-0.2-0.7-0.5-0.7l0.1,0.2c-0.4-0.2-0.7,0.6-1.1,0.7c0.5,0.2-0.4,1,0.3,1.3c-0.1,0.1-0.2-0.1-0.3,0
							c0.2,0.1,0.3,0.2,0.3,0.5l-0.1,0c0.3,0.8,0.2,1.2,0.3,2.1l0.2-0.1c0,0.2,0,0.3-0.1,0.4c0.4,0.1-0.1-0.5,0.3-0.4
							c-0.4,0.4,0.4,1.3-0.1,1.7c0.1,0.3,0.2-0.2,0.3,0.1l-0.1,0.1l0.2,0c0,0.2-0.1,0.3-0.2,0.4c0-0.1-0.1-0.1-0.1-0.2
							c-0.1,0.3,0.3,0.7,0.2,0.8l0-0.3c0.4,0.8,0.4,1.8,1,2.5l0.1-0.1c0.4,0.5,0,0.5,0.3,1.1l0,0c0.1,0.1,0.2,0.3,0.3,0.4
							c-0.2-0.1-0.2,0.4-0.4,0.2c0.4,0.6,0.3,0.3,0.8,0.6l-0.1,0.1c0.2,0.1,0.3,0.1,0.4,0.4c-0.2-0.2-0.2,0.3-0.5,0
							c-0.2,0.8,0.7,0.9,0.2,1.4c0.6,0.2,0.1-0.7,0.3-0.5c0.1-0.2,0.4,0.2,0.4,0.4c0.1,0.2-0.5,0.5-0.4,1.1c0-0.1-0.1,0-0.1-0.1
							c-0.1,0.2,0.3,0.4,0.2,0.7c0.3,0.1,0.1,0.3,0.5,0.3l-0.2-0.5c0.2,0.3,0.7,0.4,0.6,0.9c-0.1,0-0.2-0.1-0.3-0.2
							c-0.1,0.2,0.1,0.2,0.1,0.4c-0.4,0.1-0.3-0.6-0.6-0.8c-0.1,0.2,0.4,0.5,0,0.5c0.6,0.1,0.1,0.6,0.6,0.8l-0.2,0
							c0.1,0,0.2,0.1,0.2,0.2l-0.3-0.1c0.3,0.2-0.1,0.6,0.2,0.9c-0.2-0.6,0.2-0.2,0.3-0.5c0.5,0.7-0.5,0.6-0.1,1.4
							c-0.1-0.1,0-0.5,0.2-0.3c0,0.2,0,0.4-0.1,0.5c0.2,0.5,0.2-0.1,0.4,0c-0.2,0.3,0.2,0.2,0.3,0.5l-0.2,0.1c0,0.7,0.5,0,0.5,0.6
							l-0.4-0.1l0.2,0.3l-0.3,0c0.3,0.3,0.3,0.4,0.3,0.7c0.1-0.1,0.4-0.1,0.5,0.2c-0.1,0.2-0.2,0-0.1,0.3c-0.2,0-0.4-0.1-0.2-0.3
							c-0.1,0-0.2,0-0.2,0c-0.1,0.2,0.1,0.5,0.2,0.7c0-0.1,0-0.1,0-0.2l0.5,0.5c-0.1,0.1-0.1,0.1-0.2,0c0.1,0.1,0.2,0.2,0.3,0.3
							c-0.2,0-0.4,0.1-0.5-0.1l0.4,0.5c-0.1,0.1-0.1,0.3-0.2,0.3c0,0.3,0.6,0.6,0.5,1.1c0,0,0.1,0,0.1,0.1c0.1,0.4-0.1,0.8,0.3,1.2
							c-0.1,0.1-0.1,0.3-0.2,0.5c0.2,0.6,0.2-0.7,0.6,0.2c0.3,0.6-0.2,0.4-0.2,0.7c0.2,0.2,0.5,0.4,0.6,0.8c0.2,0,0.3,0,0.4,0.1
							C22.7,104.5,22.6,104.5,22.4,104.4L22.4,104.4z M28.1,104.4c-0.1,0-0.4,0.2-0.5,0.1C27.7,104.1,27.8,104.3,28.1,104.4z
							 M30.2,97.7c0.1,0.1,0,0.2-0.1,0.3C30.1,97.9,30.1,97.8,30.2,97.7z M28.9,82.1L28.9,82.1C29.1,82.3,29,82.2,28.9,82.1z
							 M28.6,81.9C28.5,81.9,28.5,81.9,28.6,81.9c0,0,0.1,0.1,0.2,0.1C28.7,81.9,28.7,81.9,28.6,81.9z M20.8,91L20.8,91
							C20.7,90.9,20.8,90.9,20.8,91z"/>
						<path class="st0" d="M30.4,98.5c0,0-0.1,0-0.1,0C30.3,98.6,30.4,98.6,30.4,98.5z"/>
						<polygon class="st0" points="21.2,100.9 21.2,100.9 21.2,100.9 						"/>
						<path class="st0" d="M32.8,84.8c0,0.1-0.1,0.1-0.1,0.1C32.7,85,32.7,84.9,32.8,84.8z"/>
						<path class="st0" d="M26.4,81.6l0.3,0c-0.1,0-0.1-0.1-0.2-0.1C26.5,81.5,26.5,81.6,26.4,81.6z"/>
						<path class="st0" d="M24.8,79.5c0,0-0.1,0-0.1,0l0,0.1C24.8,79.7,24.9,79.6,24.8,79.5z"/>
						<path class="st0" d="M26.4,80.8c0-0.2-0.1-0.2-0.3-0.2l0,0C26,80.8,26.2,80.8,26.4,80.8z"/>
						<path class="st0" d="M26.1,80.6c-0.1,0-0.1,0-0.2,0C25.9,80.6,26,80.6,26.1,80.6z"/>
						<path class="st0" d="M28,81.9c-0.1-0.1-0.1,0.2-0.2,0.1C27.7,82.2,28.5,81.9,28,81.9z"/>
						<polygon class="st0" points="26.5,80.1 26.5,80.4 26.6,80.2 						"/>
						<path class="st0" d="M27.8,80.7l-0.3-0.2c0,0-0.1,0.1-0.1,0.1C27.6,80.7,27.8,80.8,27.8,80.7z"/>
						<path class="st0" d="M27.4,80.6c-0.1,0-0.2-0.1-0.2,0C27.3,80.6,27.4,80.6,27.4,80.6z"/>
						<polygon class="st0" points="26.9,80.2 27,80.2 27.2,80.3 						"/>
						<path class="st0" d="M30.7,81.8l0.3,0c0.1-0.1,0-0.1-0.1-0.1C30.8,81.7,30.7,81.7,30.7,81.8z"/>
						<path class="st0" d="M30,80.8c0.1,0.1,0.1,0.1,0.1,0.2l0.1-0.3L30,80.8z"/>
						<path class="st0" d="M30.9,81c0.1-0.1,0.7,0,0.2-0.2C31,80.9,30.6,80.9,30.9,81z"/>
						<polygon class="st0" points="31.9,85.2 31.9,85.1 31.4,85 						"/>
						<path class="st0" d="M32.4,89.5c0.2-0.3-0.3-0.1-0.1-0.4c-0.1-0.1-0.2,0.3-0.3,0.1C32.1,89.4,32,89.5,32.4,89.5z"/>
						<path class="st0" d="M32,89.2c0,0,0-0.1-0.1-0.1C32,89.1,32,89.2,32,89.2z"/>
						<polygon class="st0" points="17.1,76.8 17.2,76.6 17,76.8 						"/>
						<path class="st0" d="M16.6,76.5l0.3-0.1l-0.3-0.1C16.6,76.3,16.7,76.4,16.6,76.5z"/>
						<path class="st0" d="M29.5,105L29.5,105c-0.1-0.2-0.2-0.2-0.5-0.2L29.5,105z"/>
						<polygon class="st0" points="25.2,104.8 25.2,104.8 25.1,104.5 						"/>
						<path class="st0" d="M21.4,103.5c0,0.2,0.2,0.4,0.2,0.6C21.5,103.7,21.8,103.2,21.4,103.5z"/>
					</g>
				</g>
				<g>
					<path class="st5" d="M15.8,76.5c0,0,29.5,6.9,41.8,26.7l41.2-0.7c0,0-16.5-9.6-30.9-17.8c0,0-17.1,10.3-44.6-30.2
						C23.3,54.6,6.2,56.6,15.8,76.5z"/>
					<g>
						<path class="st0" d="M16.8,75.8c0.1,0.3,0.2,0.1,0.3,0.1C16.8,75.5,16.7,75.8,16.8,75.8z"/>
						<polygon class="st0" points="14.5,71.3 14.6,71.3 14.2,70.7 						"/>
						<path class="st0" d="M13.6,66.7c-0.4,0.5,0.3,1.7,0.3,2.5l-0.1,0.2l0.3,0.3C14,68.7,13.5,67.4,13.6,66.7z"/>
						<path class="st0" d="M14.5,64.3c-0.2,0.1,0-0.5-0.1,0.5c0-0.1,0-0.1,0.1-0.1C14.4,64.7,14.4,64.5,14.5,64.3z"/>
						<path class="st0" d="M14.4,64.8C14.4,65.2,14.6,64.5,14.4,64.8L14.4,64.8z"/>
						<path class="st0" d="M14.7,62.7c0,0.2-0.1,0.4,0,0.6c0.1-0.1,0.3-0.6,0.3-0.4C15.1,62.4,15,62.5,14.7,62.7z"/>
						<path class="st0" d="M14.7,62.1l-0.1,0.3C14.7,62.4,14.7,62.3,14.7,62.1z"/>
						<path class="st0" d="M14.5,63.1c0-0.2,0.1-0.4,0.1-0.6c-0.1,0.1-0.2,0-0.1,0.3C14.5,62.6,14.5,62.8,14.5,63.1z"/>
						<path class="st0" d="M14.4,63.4c-0.1,0.3-0.3,0.7-0.3,0.1C14,64.7,14.3,64.6,14.4,63.4z"/>
						<path class="st0" d="M13.3,66.4l-0.1,0.5c0,0.1,0.1,0.3,0.2,0.4C13.2,67.2,13.4,66.4,13.3,66.4z"/>
						<path class="st0" d="M16.6,59.7c0-0.1-0.3,0-0.4,0L16,60.1C16.2,60,16.5,59.7,16.6,59.7z"/>
						<path class="st0" d="M16.2,59.7l0.3-0.6C16.2,59.6,16.2,59.7,16.2,59.7z"/>
						<path class="st0" d="M14.4,61.9c0,0.4-0.1,0.8-0.1,1.1c0-0.4,0.1-0.9,0.2-1.3L14.4,61.9z"/>
						<polygon class="st0" points="18.5,58.2 18.2,58.5 18.7,57.9 						"/>
						<path class="st0" d="M19.9,57.3c-0.2,0.3,0.4,0.1,0.2,0.3c0.4-0.2,0.7-0.5,1-0.7C20.8,57.1,20.4,57.2,19.9,57.3z"/>
						<path class="st0" d="M21.6,56.5c-0.2,0.1-0.3,0.2-0.5,0.3C21.3,56.8,21.4,56.7,21.6,56.5z"/>
						<path class="st0" d="M17.4,58.4c0.1,0,0.2,0,0.5-0.2l-0.3,0C17.6,58.3,17.5,58.4,17.4,58.4z"/>
						<path class="st0" d="M17.6,58.3L17.6,58.3c0.2-0.2,0.4-0.3,0.5-0.3C18,58,17.9,58,17.6,58.3z"/>
						<path class="st0" d="M17.4,58.5L17.4,58.5C17.4,58.4,17.4,58.4,17.4,58.5z"/>
						<path class="st0" d="M15.3,60.4c0.1-0.4,0.5-1.2-0.1-0.6C15.2,60.1,15.5,59.8,15.3,60.4z"/>
						<path class="st0" d="M17,58.5c-0.2,0.1-0.4,0.3-0.6,0.5c0,0,0.2,0,0.1,0.2C16.6,58.9,16.8,58.7,17,58.5z"/>
						<polygon class="st0" points="17.2,58.2 17,58.5 17.2,58.3 						"/>
						<path class="st0" d="M20.4,56.8c0.3-0.2,0.6-0.3,0.9-0.5c-0.4,0.1-0.8,0.2-1.2,0.4C20.1,56.8,20,56.9,20.4,56.8z"/>
						<path class="st0" d="M19,57.4C19,57.4,19,57.3,19,57.4C19,57.3,18.9,57.3,19,57.4z"/>
						<polygon class="st0" points="23.3,56.6 23.3,56.6 23.3,56.6 						"/>
						<path class="st0" d="M20,56.7c-0.3,0.1-0.4,0.2-0.6,0.4C19.7,56.9,19.9,56.8,20,56.7C20.1,56.6,20.1,56.6,20,56.7z"/>
						<path class="st0" d="M22.4,56.2c0,0-0.2,0-0.4,0C22.1,56.2,22.3,56.2,22.4,56.2C22.4,56.2,22.4,56.2,22.4,56.2z"/>
						<path class="st0" d="M19.1,57.3L19.1,57.3C19.2,57.4,19.2,57.3,19.1,57.3z"/>
						<path class="st0" d="M19.1,57.3c0.1-0.1,0.2-0.2,0.3-0.3c-0.2,0.1-0.3,0.2-0.4,0.3C19.1,57.3,19.1,57.3,19.1,57.3z"/>
						<path class="st0" d="M25.2,56.9c-0.2,0.1-0.9-0.6-1.1-1.3c-0.3-0.3-0.4-0.1-0.5,0.1c-0.1,0.2-0.2,0.5-0.2,0.9
							c0.1,0,0.1-0.1,0.7,0.5c-0.1-0.3-0.8-1.5-0.3-1.1c0.7,0.8,0.4,0.7,0.6,1.2c-0.1-0.5,1.1,0.9,1.2,0.5L25,57
							C25,56.9,25.3,57.1,25.2,56.9z"/>
						<path class="st0" d="M22.9,55.9c0,0-0.1,0-0.1,0c0.1,0,0.1,0.3,0.1,0.5c0,0,0.1,0,0.1,0c0.1,0.1,0.1,0.1,0.2,0.1
							c0.1,0.1,0.1,0.1,0.2,0.1L22.9,55.9L22.9,55.9z"/>
						<path class="st0" d="M22,56c0.1-0.1,0.3-0.3,0.3-0.4c0.1-0.1,0.1-0.2,0-0.3c-0.7,0.2-0.5,0.3-1,0.6C22.7,55.5,21,56.2,22,56
							c-0.3,0.1-0.5,0.2-0.7,0.3c0.3,0,0.5-0.1,0.7-0.1l0,0l0,0l0,0c-0.1,0-0.1,0,0,0C22,56.1,22,56.1,22,56C22,56.1,22,56.1,22,56
							C22.4,56,22.1,56.1,22,56c0,0.1,0,0.1,0,0.1l0,0c0.1,0,0.2-0.1,0.3-0.1l0.1-0.1c0.1,0,0.2-0.1,0.3-0.1c-0.1,0-0.1,0-0.2,0
							C22.4,55.9,22.2,56,22,56z"/>
						<path class="st0" d="M15.4,58.9C15.4,58.9,15.4,58.9,15.4,58.9C15.5,58.8,15.5,58.8,15.4,58.9z"/>
						<path class="st0" d="M15.9,58.5c-0.1,0.1,0,0.2-0.3,0.5c-0.2,0.2-0.1-0.1-0.1-0.1c-0.1,0.2-0.4,0.7,0.1,0.2l0-0.1
							c0.2-0.2,0.5-0.4,0.7-0.5c0.2-0.1,0.4-0.1,0.4-0.1C16.5,58.4,16.2,58.3,15.9,58.5z"/>
						<path class="st0" d="M18.8,56.8l1-0.6l-0.6,0.1l0.1,0.1C18.7,56.6,18.9,56.6,18.8,56.8z"/>
						<polygon class="st0" points="23.3,56.8 23.1,56.8 23.8,57.2 						"/>
						<polygon class="st0" points="24.3,58.2 24.1,58.2 24.5,58.5 						"/>
						<path class="st0" d="M97.3,103.8l-0.5,0.1C97.1,103.8,97.2,103.8,97.3,103.8z"/>
						<path class="st0" d="M101.7,103.7l-0.2-0.1C101.5,103.7,101.5,103.7,101.7,103.7z"/>
						<path class="st0" d="M54.4,85.6c0.5,0.4,1,0.9,1,0.6L55.3,86C54.9,85.9,54.6,85.7,54.4,85.6z"/>
						<path class="st0" d="M80.3,91.9l-0.1-0.1c-0.2,0-0.3,0-0.4,0C80,91.8,80.2,91.8,80.3,91.9z"/>
						<path class="st0" d="M81.1,91.3l0.6,0.5C81.5,91.7,81.4,91.5,81.1,91.3z"/>
						<path class="st0" d="M80.5,104.3l-0.4,0.2C80.8,104.5,80.5,104.4,80.5,104.3z"/>
						<path class="st0" d="M35.1,71.4c0.3,0.4,0.5,0.7,0.7,1C35.5,71.8,35.3,71.4,35.1,71.4z"/>
						<path class="st0" d="M93.7,101.6c0,0,0,0.1,0.1,0.1C93.9,101.7,93.9,101.6,93.7,101.6z"/>
						<path class="st0" d="M36.7,73.4c-0.1-0.1-0.1-0.1-0.1-0.2c-0.3-0.2-0.5-0.5-0.8-0.8C36,72.7,36.3,73.1,36.7,73.4z"/>
						<path class="st0" d="M34,84.8L34,84.8C33.9,84.7,33.9,84.7,34,84.8z"/>
						<path class="st0" d="M20.4,76.9c0.2,0,0.4,0.1,0.6,0.2C20.9,77,20.7,77,20.4,76.9z"/>
						<path class="st0" d="M28.2,63.6C28,63.3,28.2,63.6,28.2,63.6L28.2,63.6z"/>
						<path class="st0" d="M27.8,61.7c0.1,0,0.1,0.1,0.2,0.1C27.9,61.8,27.9,61.8,27.8,61.7z"/>
						<path class="st0" d="M40.2,74.8L40.2,74.8C40.2,74.7,40.2,74.7,40.2,74.8z"/>
						<path class="st0" d="M28,63.1c0.1,0.1,0.1,0.3,0.2,0.4C28.2,63.5,28.1,63.3,28,63.1z"/>
						<path class="st0" d="M27.9,63.2c-0.1-0.1-0.1-0.2-0.2-0.3C27.7,63,27.7,63,27.9,63.2z"/>
						<path class="st0" d="M28.6,64c-0.1-0.2-0.2-0.3-0.3-0.5c0,0.1,0,0.1,0,0.1C28.3,63.7,28.4,63.8,28.6,64z"/>
						<path class="st0" d="M56,102C55.9,102,55.9,102,56,102C55.7,101.7,55.8,101.9,56,102z"/>
						<polygon class="st0" points="63.7,84.9 63.6,84.9 63.7,84.9 						"/>
						<path class="st0" d="M64.8,84.6c-0.4,0.4-0.7,0.3-1.1,0.3l0.5,0.6C64.4,85.1,64.6,84.9,64.8,84.6z"/>
						<path class="st0" d="M88.8,104l0.9,0.2c-1.1,0.3-1.8,0.2-1,0.5c0.1-0.3,0.9-0.4,1.8-0.4c0.4,0,0.9,0,1.2-0.1
							c0.2-0.1,0.8-0.1,0.8-0.3l1,0.1c-0.3,0-0.3,0-0.6,0c2.2,0.3,1.1-0.5,3.3-0.4c0.8,0,1.6,0.1,1.2,0.2l1.4-0.2
							c0.5,0,0.7,0.1,0.2,0.1l2.6-0.1l0,0c0-0.1,0.2-0.2,0.3-0.3c-0.3-0.1-0.5-0.2-0.7-0.3c-0.2-0.2,0.5,0.2,0.7,0.2l-1.7-0.8
							c0-0.2,1.6,0.5,2.4,1c0.6-0.1,0.1-0.3-0.6-0.6c-0.7-0.3-1.6-0.7-2.5-1.5l1.5,0.8c0.1-0.4-1.4-1.1-2.6-2.1
							c0.1,0.1,0.7,0.6,0.9,0.9c0.2,0.3,0.1,0.4-0.8,0c-0.3-0.2-0.8-0.6-1.8-1c0.4-0.1-0.5-0.5-1.5-1l0.4-0.1
							c-1.2-0.6-1.3-0.4-1.9-0.7c-0.8-0.5-0.8-0.8-0.8-1c-1.1-0.7,0.6,0.8-0.8,0.1c-0.9-0.7-1.6-0.9-2.9-1.4c-0.6-0.5,0.2-0.1,0-0.3
							l-0.7-0.1c-0.1-0.1-0.1-0.1,0-0.1c-0.5-0.2-0.2,0.2-1-0.1c-0.4,0.2-1.4-1.4-2.5-1.6c-0.2-0.2,0.2-0.1,0.2-0.2
							c-1.5-0.5-1.2-0.5-2.5-0.8l-0.8-0.7c0.6,0.6-0.4,0.3-1.3,0.1c0.2,0.2,0.3,0.4,0.5,0.6l-1.3-0.6c-0.1-0.1,0.1-0.2,0.3-0.2
							c-0.1,0-0.2,0-0.3-0.1c-0.4-0.4-0.1-0.4,0.3-0.4c0.1,0.1,0.2,0.3,0.3,0.4c0.4,0,0.8,0,0.8-0.2c-0.1,0-0.3-0.1-0.4-0.2
							c0.1,0,0.2,0,0.2-0.1c0-0.1-0.2-0.1-0.4-0.1l-0.1-0.5l-0.1,0.1l-1.5-1.1c-1.3-0.4-2.6-0.5-4.5-1.4c0.6,0,0.3-0.3,0.5-0.6
							c0.3,0.6,1.5,0.7,2.4,1.3c-0.5-0.3-0.3-0.4-0.1-0.3L75.1,88c0.2-0.2-0.3-0.4-0.6-0.7c0.1,0.6-1.4-0.4-2.2-0.7
							c0-0.2,0.3-0.2,1.1,0.3c-0.7-0.9-1.5-0.2-2.2-1c0.2,0.1,0.3,0.2,0.4,0.2c-0.5-0.1-1.6-0.9-1.3-0.9l0.2,0.1
							c-0.3-0.2-0.6-0.4-1-0.6c-0.2-0.1-0.5-0.3-0.7-0.4c-0.3-0.2-0.6-0.3-0.8-0.4c-0.4,0.2-0.8,0.4-1.1,0.6
							c-0.2,0.1-0.5,0.2-0.6,0.3c-0.4,0.2-0.7,0.3-0.7,0.5c0-0.1,0.1-0.5,0.1-0.6c-0.7,0.7-1.6,1.2-2.5,1.8c0.2-0.4-0.7-1.2,0.5-1.5
							c-0.3,0-0.8,0-1.5,0.1c0.2,0.1,0.6,0.5,0.3,0.6c-0.9-0.4-0.6-0.2-1.7-0.6c0.4,0.1-0.1,0.6-0.7,0.5c0.1-0.1,0-0.6,0.2-0.6
							l-1.5,0.4c0.4-0.1,0.1-0.4-0.1-0.7c0.1,0.1-1.2-0.3-1.6-0.4l0.6,0.3c-1.5-0.5-1.8,0.3-3.3-0.3c0.2,0,0.7-0.5,0-0.8
							c-0.2,0.1-0.8,0.2-1.4,0.3c-0.6,0-1.4,0-2.1-0.2L50.5,83l-1.1-0.4c0.9,0,3,0.1,4.1,0.2c-0.5-0.3-0.1-0.2-0.9-0.6
							c-0.2-0.3,0.5,0,0.8,0.1l-1.8-1.1c-0.1,0.3-1.6-0.4-1.7-0.2l2.2,0.8c0,0.3-1.7,0.3-2.9-0.6c-0.3-0.3,0.5-0.3,0.6-0.5
							c-0.2,0-1.3-0.6-1.4-0.8l0.6,0.2c-0.6-0.6-1.4-0.4-2.1-1.2c-0.3-0.2-0.6-0.9-0.8-0.8c0.2,0.7-0.4,1.7-0.8,1.7
							c-0.1-0.1-1.3-1.5-1.5-1.9c-0.3-0.6,1.1,0,0.9-0.5c-0.1,0.1-0.4-0.1-0.5-0.1c-0.2-0.3,0.3-0.1-0.4-0.6c-0.3,0.2-1.3-1-0.5,0
							c-0.7-0.4-0.6-0.6-1.3-1.2c0.1,0.4-1.1,0-1.8-0.5c0.1,0,0-0.2,0-0.3c-1.2-1.2-1.7-1.8-2.8-2.9c0-0.2-0.5-0.8-0.1-0.6
							c-0.2-0.1-0.4-0.2-0.7-0.5c-0.4-0.9,0.7,0.7,0.5,0c-0.2,0.1-1-0.7-1.6-1.1c-0.1,0.4,1,1.2,1.5,1.6c-0.3,0.3-1.4-0.3-2.6-1.3
							c-0.9-0.9-0.2-0.6-0.4-0.7c-1.6-1.8-1.9-1-3-2.8c-0.3-0.8,0.4-0.4,0.4-0.6c0.7,0.7,0.9,1.3,1.3,1.9l-0.4-0.8
							c0.3,0.2,0.7,0.7,1,1c-0.3-0.6-2.5-3.2-3.5-4.7c-0.3-0.2-0.7-0.6-0.6-0.3l0.4,0.4c0.2,0.6-0.9-0.7-0.5,0c-0.6-0.5-1.4-1-1.9-2
							l0.1-0.4c-0.1,0.1,0.3,0.7,0.5,0.9c-0.4-0.3-0.7-1.6-1.3-1.8l0.3,0.8c-0.6-0.5-1.4-1.2-1.9-2c0,0.5,0.2,0.2,0.3,0.9
							c0-0.7,1.5,2.1,1.3,1c0.1,0.8,0.6,1.1,0.9,2.1c0.1-0.1-0.1-0.4,0.4,0.3c0,0,0.1,0.1,0.2,0.1c0,0,0,0,0,0l0,0c0,0,0,0,0,0
							c-0.1-0.2-0.1-0.3-0.1-0.4c0.4,0.2,1.3,1.2,1.6,1.5c0.3,0.4-0.2-0.1-0.1,0.2l0.6,0.4c-0.1,0.2,0.5,1.2-0.3,0.4l0.6,0.8
							c0.3,0.6,0.8,1.2,1.2,1.6c0.3,0.4,1,0.8,0.6,0.6c0.4,0.4,0.8,0.7,1.2,1.1l0,0c1.1,1.2,2.5,2.2,3.5,3.8
							c0.4,0.4,0.9,0.7,1.5,1.4l0,0.3c0.6,0.4,1.4,1.6,1.8,1.6c0.2,1,2.5,2.3,3.4,3.2l0.2-0.2c0.7,0.5,1.3,1,2.3,1.5l0.1-0.2
							c0.9,0.3,1.9,1.4,3.1,2.2c-0.1,0-0.4-0.2-0.6-0.4c0.6,0.7,1.5,1,2.3,1.3c0.9,0.3,1.6,0.7,2.3,1.1c0.4,0.1,0.7,0.2,0.9,0.4
							c0,0-0.1,0-0.1,0c0,0,0.1,0,0.2,0.1c0.2,0.1,0.3,0.2,0.5,0.3c-0.1-0.1-0.3-0.2-0.4-0.3c0.3,0.1,0.7,0.2,1.2,0.4l0.1,0.3
							c0,0,0.1,0,0.1,0c0.4,0.2,0.4,0,0.2-0.2c0.2,0,0.4,0,0.6,0c0.2,0.5,1.2,0.2,1.6,0.7c0.3,0,2.3,0.2,2.6-0.1
							c0,0.1,0.1,0.1-0.1,0.1c0.5,0.1,1,0.2,1.5,0.1l0.2,0.3l1.1-0.4c0.7,0.1,1,0.2,0.3,0.5c1.6-0.5,1.3-0.2,2.6-0.9l0,0.2
							c0.5-0.1,1.2-0.6,1.5-0.6c0.1,0,0.3,0,0.5-0.1c0.3,0.2,0.3,0.3,0.9,0.6c0.5,0.3,1,0.6,1.6,0.9c1.1,0.7,2.3,1.4,3.2,2.1
							c-0.2-0.8,1,0.9,1.3,0.5c0.1,0.2,0.4,0.5-0.1,0.3c1.3,0.6,1.7,1.2,2.7,1.4c0.1,0.2-0.4,0-0.3,0.2c0.1,0,0.4,0.1,0.5,0.3
							c0.1,0.1-0.2,0-0.5-0.1c1.2,0.7,1.6,0.4,1.9,0.1c0.5,0.5,0.8,0.7,1.4,0.7c0.2,0.2,0.4,0.6-0.3,0.2c0.4,0.3,2.5,1.7,2.7,1.4
							c0.1,0.1,0.6,0.4,0.7,0.4c0.9,0.6,1,0.6,2,1.2l-0.2-0.2c0.6-0.1,0.8,0.4,1.6,0.8l0,0c1.6,1.2,0.8,0.3,2.4,1.6l0-0.3
							c0.4-0.3,1.4,1.1,2.5,1.5l-0.3-0.3c0.3,0.1,0.6,0.5,0.9,0.8c0.2,0.3,0.1,0.6,0.2,0.6c0,0-0.1,0-0.2,0c0.1,0.4,0.4-0.2,1,0.1
							c-0.2,0.1-0.7,0.1-0.6,0.2c-0.1,0,0.3,0.1,0.8,0.3c0.5,0.1,1.1,0.4,0.8,0.4c0.4,0.1,0.6,0.1,1.2,0.3c0.1,0.1,0.2,0.1,0.2,0.1
							c-0.9-0.1-2.1-0.4-1.6,0c-0.1,0-0.2-0.1-0.3-0.1c-0.1,0.1-0.8,0.2-0.9,0.4c-0.3-0.2-0.5-0.3-0.7-0.3c-0.1,0-0.2,0-0.4,0
							c-0.2,0-0.5,0.1-0.7,0.1c-1,0.1-1.8,0.3-1.8-0.1l-2.1,0.1l0.1-0.1c-1.3,0-1.8,0.2-2.2,0.3c-0.3,0-0.1-0.1-0.1-0.2
							c-1.9-0.1-2.1-0.1-3.7,0.3l-0.2-0.2c-0.4,0.1-2.8-0.3-4.7,0c0,0,0.1-0.1,0.2-0.1c-2.1,0.3-5.1-0.6-5.9,0.3l-1.4,0.2
							c1.8,0-0.3,0.4,0.5,0.5c-0.7,0.1-1.8-0.2-1-0.3l0.1,0c0.3-0.5-2.3-0.1-2.2-0.4c-1.8,0-3.5,0-5.3,0c-0.9,0-1.7,0-2.6,0l-0.7,0
							c-0.1-0.1-0.1-0.2-0.2-0.2l-0.2-0.3c0,0.2-0.1,0.3-0.1,0.5l-0.6-0.9c-0.1-0.3,0-0.5,0.5,0.2c-0.1-0.5-1-1.1-1-1
							c-0.8-1.4,0.7,0.3,0.4-0.1l-0.4-0.6l0.1,0.2c-0.5-0.4-0.5-0.4-1.2-1.1c-0.4-0.5,0-0.4-0.2-0.6c0,0,0-0.1-0.2-0.3l-1-1.2
							l0.2,0.6c-0.5-0.4-0.9-1.1-0.7-0.3c-0.1-0.3-0.3-0.7-0.7-1.1c-0.4-0.4-0.9-0.9-1.4-1.4c-1-0.9-1.9-1.8-2.1-2
							c-0.8-0.4-1.5-1-2.4-1.7c0.2,0.2,0.1,0.6-0.6-0.1c0.7-0.3-1.3-1.3-1.6-2.1c0.4,0.7-2.3-1.5-1.7-0.5c-0.6-0.5,0.1-0.2-0.3-0.7
							c-1.8-0.8-3.5-2.4-5.7-3.5c-0.1,0.1,0.2,0.4-0.3,0.2c-0.3-0.3-0.6-0.7-0.9-1c-0.4-0.2-0.6,0.3-1.3-0.4
							c0.1,0.1,0.2,0.3-0.1,0.2c-4-2.5-8.8-3.6-13-5.9c0.6,0.4,0.1,0.2-0.3,0.1c0.3,0.1-0.1,0.2-0.1,0.3l-1.8-0.9
							c-0.4,0.2-2.1-0.6-2.3-0.3l0.6,0.1c-0.9,0.1,0.9,1.1,0.6,1.5c1-0.1,2.1,1.3,3.7,1.2c0.3,0.2-0.3,0.1-0.2,0.2
							c0.4-0.1,0.9,0,1.7,0.4l-0.1,0c2.3,0.8,3.2,1.3,5.6,2.5l-0.1-0.3c0.5,0.3,0.6,0.4,0.8,0.5c0.8-0.1-1.5-0.7-0.8-0.8
							c0.5,0.7,3.7,1.7,4,2.4c0.8,0.4-0.1-0.4,0.7,0l0.1,0.2l0.3-0.1c0.5,0.3,0.7,0.6,0.7,0.7c-0.1-0.1-0.4-0.1-0.5-0.2
							c0.6,0.5,1.9,0.9,2.1,1.1l-0.7-0.5c1.1,0.5,2.3,1.2,3.4,1.9c1.1,0.7,2.3,1.4,3.3,1.9L42.1,89c1.6,0.9,1.1,0.9,2.8,2l-0.1,0
							c0.4,0.1,0.8,0.4,1.2,0.8c-0.5-0.2,0.6,0.8,0,0.5c1.6,1.1,0.8,0.5,2.1,1l0.1,0.3c0.4,0.2,0.6,0.1,1.3,0.7
							c-0.7-0.4,0.3,0.6-0.5,0.2c1.2,1.7,2.5,1.8,2.7,2.9c0.5,0.2,0.3-0.2-0.1-0.6c-0.3-0.4-0.8-0.7-0.5-0.6
							c-0.2-0.4,0.9,0.3,1.2,0.8c0.4,0.5,0.3,1.3,1.3,2.5c-0.1-0.1-0.1-0.1-0.2-0.2c0.3,0.6,1,0.8,1.2,1.5c0.5,0.2,0.5,0.8,0.9,0.7
							l-0.9-1.2c0.6,0.6,1.4,1,2,2.3c-0.1,0-0.5-0.3-0.7-0.5c0.1,0.2,0.2,0.4,0.3,0.5c0.1,0.1,0.3,0.3,0.4,0.6
							c-0.1,0-0.3-0.1-0.4-0.3c-0.1-0.1-0.3-0.3-0.5-0.6c-0.3-0.4-0.7-1-1.1-1.3c0.1,0.5,1.2,1.2,0.6,1.1c0.4,0.1,0.6,0.4,0.9,0.9
							c0.4,0.6,0.7,1.6,1.8,1.1l-0.2,0.2c0.3,0,0.9-0.2,1.2-0.2c-0.2,0.1-0.4,0.2-0.7,0.3c0.5-0.1,0.6-0.1,0.8-0.1
							c0.2,0,0.4,0,0.7,0.1c0.4,0.1,0.9,0.1,1.3,0.1c-1.8,0-0.4-0.3-1.2-0.4c2.3-0.4,1.3,0.6,3.9,0.4c-0.3,0-1.3-0.1-0.8-0.2
							c0.5,0,1.1,0.1,1.4,0.2c1.7-0.1-0.3-0.2,0.5-0.4c0.6,0.3,0.8-0.1,1.6-0.2l0,0.2c1.9,0.1,0.5-0.5,2.2-0.3l-0.7,0.3l0.9-0.1
							l-0.2,0.3c1-0.2,1.3-0.2,2.2-0.1c-0.2-0.2,0.1-0.4,1-0.5c0.6,0.1-0.3,0.2,0.9,0.2c-0.3,0.2-0.6,0.3-1.1,0.1
							c-0.1,0.1-0.3,0.2-0.3,0.2c0.6,0.2,1.6,0,2,0c-0.2,0-0.4,0-0.5,0l1.7-0.4c0.3,0.1,0.1,0.2-0.2,0.2c0.4,0,0.6-0.1,1.1-0.2
							c-0.1,0.2-0.1,0.4-0.8,0.5l1.7-0.2c0.1,0.1,0.9,0.2,0.6,0.3c0.9,0.1,2.3-0.4,3.5-0.3c0.1,0,0.2-0.1,0.5-0.1
							c1.2,0,2.2,0.2,3.5,0l0.8,0.3c1.1-0.1-1.1-0.4,0.7-0.6c1.3-0.1,0.5,0.3,0.9,0.4c0.6-0.2,1.7-0.6,2.9-0.3
							C89.5,104,89.2,104,88.8,104z M98.3,101.1c0.4,0.2,1.6,0.7,1.5,0.8C98.7,101.5,98.8,101.4,98.3,101.1z M78.9,90.5
							c0.2,0,0.4,0.2,0.7,0.5C79.3,90.9,79.1,90.7,78.9,90.5z M30.8,66.5L30.8,66.5C31.1,67,31,66.8,30.8,66.5z M30.2,65.5
							c-0.1-0.1-0.1,0-0.1,0c0.1,0,0.3,0.2,0.4,0.5C30.5,65.9,30.4,65.7,30.2,65.5z M55,98.1l0.1,0.2C54.7,97.9,54.8,98,55,98.1z"/>
						<path class="st0" d="M81,91.4c0,0.1,0,0.1,0,0.2C81.2,91.6,81.2,91.5,81,91.4z"/>
						<path class="st0" d="M80.6,104.3L80.6,104.3C80.5,104.3,80.5,104.3,80.6,104.3L80.6,104.3z"/>
						<path class="st0" d="M44.4,77.1c0.2,0.2,0.2,0.3,0.3,0.4C44.7,77.5,44.7,77.4,44.4,77.1z"/>
						<path class="st0" d="M25.9,60.7l0.5,0.6c-0.2-0.3-0.3-0.4-0.3-0.6C26.1,60.8,26.1,60.9,25.9,60.7z"/>
						<path class="st0" d="M23.3,54.6c-0.1,0-0.2,0-0.4,0.1l0,0.1c0.2-0.1,0.4-0.1,0.5,0C23.4,54.8,23.5,54.7,23.3,54.6z"/>
						<path class="st0" d="M26.2,59.7c0.1-0.2-0.2-0.5-0.5-0.9l0.1,0.1C25.4,58.9,25.8,59.3,26.2,59.7z"/>
						<path class="st0" d="M25.5,58.7c-0.1-0.1-0.2-0.3-0.3-0.4C25.1,58.3,25.4,58.5,25.5,58.7z"/>
						<path class="st0" d="M29.1,64.4c-0.1-0.2-0.3,0-0.3-0.1C28.4,64.2,30.1,65.4,29.1,64.4z"/>
						<polygon class="st0" points="26.5,59 26.4,59.3 26.7,59.4 						"/>
						<path class="st0" d="M28.8,62.5l-0.5-0.7c0,0-0.1,0-0.2-0.1C28.4,62,28.8,62.5,28.8,62.5z"/>
						<path class="st0" d="M28.1,61.6c-0.2-0.2-0.3-0.4-0.4-0.5C27.8,61.2,28,61.5,28.1,61.6z"/>
						<polygon class="st0" points="27.2,59.9 27.3,60.1 27.6,60.6 						"/>
						<path class="st0" d="M34.6,69.5l0.7,0.6c0.1,0,0-0.2-0.3-0.4C34.9,69.6,34.6,69.3,34.6,69.5z"/>
						<path class="st0" d="M33.3,67c0.1,0.2,0.1,0.3,0.1,0.4l0.3-0.2C33.5,67.1,33.4,67.1,33.3,67z"/>
						<path class="st0" d="M35.1,68.9c0.1,0,1.1,0.8,0.3,0C35.3,68.9,34.6,68.2,35.1,68.9z"/>
						<polygon class="st0" points="45,78.7 44.8,78.5 44.5,79 						"/>
						<path class="st0" d="M56,83.5c-0.9-0.5-0.3,0.2-1.2-0.3c-0.3,0,0.7,0.4,0.4,0.4C55.9,83.7,56.2,83.9,56,83.5z"/>
						<path class="st0" d="M55.3,83.6c-0.1,0-0.2,0-0.3,0C55.1,83.6,55.2,83.6,55.3,83.6z"/>
						<polygon class="st0" points="18,75.9 17.3,75.6 17.7,75.9 						"/>
						<path class="st0" d="M16.6,75.9l-0.1-0.4L16,75.7C16.1,75.7,16.5,75.8,16.6,75.9z"/>
						<path class="st0" d="M96.5,99.3l-0.2,0c0.1,0.1,0.3,0.3,0.8,0.6L96.5,99.3z"/>
						<polygon class="st0" points="96.3,104.1 96.6,104.1 95.7,103.9 						"/>
						<path class="st0" d="M86.4,104.7c0.3,0,0.7-0.1,1-0.1C86.7,104.7,86.3,104.3,86.4,104.7z"/>
					</g>
				</g>
			</g>
			<g>
				<path class="st4" d="M77.7,84.7c2.2-1.5,3.3-3.7,2.4-5.3c-0.8-1.5-3.2-1.7-5.5-0.7C74.5,76.1,73,74,71.2,74
					c-1.7,0-3.1,1.9-3.3,4.4c-2.4-1.2-4.9-1-5.8,0.6c-0.8,1.5,0.1,3.6,2.2,5.1c-2.2,1.5-3.3,3.7-2.4,5.3c0.8,1.5,3.2,1.7,5.5,0.7
					c0.2,2.6,1.6,4.7,3.4,4.7c1.7,0,3.1-1.9,3.3-4.4c2.4,1.2,4.9,1,5.8-0.6C80.7,88.3,79.8,86.1,77.7,84.7z M71,84.4
					C71,84.4,71,84.4,71,84.4C71,84.4,71,84.4,71,84.4C71,84.4,71,84.4,71,84.4C71,84.4,71,84.4,71,84.4C71,84.4,71,84.4,71,84.4
					C71,84.4,71,84.4,71,84.4z"/>
				<g>
					<path class="st6" d="M77.7,84.7c2.2-1.5,3.3-3.7,2.4-5.3c-0.8-1.5-3.2-1.7-5.5-0.7C74.5,76.1,73,74,71.2,74
						c-1.7,0-3.1,1.9-3.3,4.4c-2.4-1.2-4.9-1-5.8,0.6c-0.8,1.5,0.1,3.6,2.2,5.1c-2.2,1.5-3.3,3.7-2.4,5.3c0.8,1.5,3.2,1.7,5.5,0.7
						c0.2,2.6,1.6,4.7,3.4,4.7c1.7,0,3.1-1.9,3.3-4.4c2.4,1.2,4.9,1,5.8-0.6C80.7,88.3,79.8,86.1,77.7,84.7z M71,84.4
						C71,84.4,71,84.4,71,84.4C71,84.4,71,84.4,71,84.4C71,84.4,71,84.4,71,84.4C71,84.4,71,84.4,71,84.4C71,84.4,71,84.4,71,84.4
						C71,84.4,71,84.4,71,84.4z"/>
					<g>
						<path class="st3" d="M70.3,85.4c0,0-0.1,0.2-0.1,0.2C70.2,85.5,70.3,85.4,70.3,85.4z"/>
						<polygon class="st3" points="70.6,85 70.6,85.1 70.7,84.9 						"/>
						<path class="st3" d="M70.7,85.1C70.8,84.8,70.6,85.1,70.7,85.1l0-0.1l-0.1,0.2C70.6,85.1,70.7,85,70.7,85.1z"/>
						<path class="st3" d="M70.4,85.8C70.4,85.7,70.4,85.8,70.4,85.8C70.4,85.8,70.4,85.8,70.4,85.8C70.4,85.8,70.4,85.8,70.4,85.8z
							"/>
						<path class="st3" d="M70.5,85.7l-0.1,0.1c0,0.1,0,0.1,0,0.2C70.4,85.9,70.4,85.8,70.5,85.7z"/>
						<path class="st3" d="M70.6,85.5L70.6,85.5C70.6,85.5,70.6,85.5,70.6,85.5z"/>
						<path class="st3" d="M70.5,85.6L70.5,85.6C70.6,85.5,70.6,85.5,70.5,85.6C70.5,85.6,70.5,85.6,70.5,85.6z"/>
						<path class="st3" d="M70.5,85.6c0-0.1,0-0.1,0.1-0.2C70.6,85.4,70.5,85.6,70.5,85.6z"/>
						<path class="st3" d="M70.8,84.7L70.8,84.7L70.8,84.7C70.9,84.7,70.8,84.8,70.8,84.7z"/>
						<path class="st3" d="M70.5,85.9c0-0.1,0.1-0.2,0.1-0.3l0,0.1C70.6,85.8,70.6,85.8,70.5,85.9z"/>
						<path class="st3" d="M70.6,85.6l0.1-0.1C70.7,85.5,70.7,85.6,70.6,85.6z"/>
						<polygon class="st3" points="70.7,85.1 70.6,85.4 70.7,85.1 						"/>
						<polygon class="st3" points="70.6,86 70.6,86.1 70.6,85.9 						"/>
						<path class="st3" d="M70.7,85.9c0,0.1,0,0.2-0.1,0.3C70.6,86.2,70.7,86.1,70.7,85.9C70.7,86.1,70.7,86.1,70.7,85.9z"/>
						<path class="st3" d="M70.8,85.9c0,0,0,0.1,0,0.2C70.7,86,70.7,85.9,70.8,85.9z"/>
						<path class="st3" d="M70.7,85.6c0,0,0,0.2,0,0.2L70.7,85.6L70.7,85.6z"/>
						<path class="st3" d="M70.7,85.6L70.7,85.6L70.7,85.6C70.7,85.6,70.7,85.6,70.7,85.6z"/>
						<path class="st3" d="M70.7,85.6L70.7,85.6L70.7,85.6z"/>
						<path class="st3" d="M70.7,85.3c0-0.1,0.1-0.2,0.1-0.4C70.8,85,70.8,85.1,70.7,85.3z"/>
						<path class="st3" d="M70.8,85.3L70.8,85.3c0,0,0,0.1-0.1,0.1L70.8,85.3z"/>
						<polygon class="st3" points="70.8,85.3 70.8,85.3 70.8,85.3 						"/>
						<path class="st3" d="M70.8,85.7c0-0.1,0-0.1,0-0.1c0,0,0-0.1,0-0.1C70.8,85.6,70.8,85.7,70.8,85.7z"/>
						<path class="st3" d="M70.7,85.6L70.7,85.6C70.7,85.6,70.7,85.6,70.7,85.6z"/>
						<polygon class="st3" points="70.9,85.6 70.9,85.5 70.9,85.6 						"/>
						<path class="st3" d="M70.8,85.5C70.8,85.5,70.8,85.5,70.8,85.5C70.8,85.5,70.8,85.5,70.8,85.5C70.8,85.5,70.8,85.5,70.8,85.5z
							"/>
						<path class="st3" d="M70.8,85.8c0,0,0-0.1,0-0.1C70.8,85.7,70.8,85.7,70.8,85.8z"/>
						<path class="st3" d="M70.7,85.6L70.7,85.6L70.7,85.6z"/>
						<path class="st3" d="M70.7,85.6c0,0,0-0.1,0-0.1C70.8,85.5,70.7,85.6,70.7,85.6C70.7,85.6,70.7,85.6,70.7,85.6z"/>
						<path class="st3" d="M71,84.2c0,0.2,0,0.4,0,0.2c0,0.1-0.1,0.8-0.1,1.1c0-0.1,0-0.2,0-0.3c0-0.1,0-0.3,0-0.4
							c0-0.1,0,0.1,0,0.2C71,84.8,71,84.7,71,84.2l0,0.2C71,84.4,71,84.3,71,84.2z"/>
						<path class="st3" d="M70.9,85.5L70.9,85.5c0,0.1,0,0.1,0,0.3C70.9,85.7,70.9,85.6,70.9,85.5L70.9,85.5L70.9,85.5z"/>
						<path class="st3" d="M70.8,85.5c0-0.2,0.1-0.3,0.1-0.5c0,0,0,0.2-0.1,0.3C70.9,85.3,70.8,85.4,70.8,85.5
							C70.8,85.5,70.8,85.6,70.8,85.5c0,0.1,0,0.1,0,0.1l0,0l0,0l0,0C70.8,85.6,70.8,85.6,70.8,85.5L70.8,85.5L70.8,85.5
							C70.8,85.6,70.8,85.6,70.8,85.5l0,0.1l0,0L70.8,85.5C70.9,85.5,70.8,85.5,70.8,85.5z"/>
						<path class="st3" d="M71,84.5L71,84.5C71,84.5,71,84.5,71,84.5z"/>
						<path class="st3" d="M71,84.6C70.9,84.6,70.9,84.7,71,84.6C70.9,84.6,71,84.6,71,84.6c0,0,0,0.1-0.1,0.2l0,0
							c0,0.1-0.1,0.3-0.1,0.4C70.9,84.9,70.9,84.8,71,84.6z"/>
						<path class="st3" d="M70.9,85L70.9,85l0.1-0.3l0,0.1C70.9,84.9,70.9,84.9,70.9,85z"/>
						<polygon class="st3" points="70.9,85.7 70.9,85.9 70.9,85.6 						"/>
						<polygon class="st3" points="70.9,85.7 70.9,85.8 70.9,85.7 						"/>
						<path class="st3" d="M70.8,85.5L70.8,85.5L70.8,85.5z"/>
						<path class="st3" d="M70.9,85.5L70.9,85.5C70.9,85.5,70.9,85.5,70.9,85.5z"/>
						<polygon class="st3" points="71.1,84.3 71.1,84.3 71.1,84.3 						"/>
						<path class="st3" d="M71,84.4L71,84.4c0,0,0.1,0,0.1,0L71,84.4z"/>
						<path class="st3" d="M70.1,84.7l0.1,0L70.1,84.7z"/>
						<path class="st3" d="M70.6,85.7l-0.1,0.2C70.6,85.9,70.6,85.8,70.6,85.7z"/>
						<path class="st3" d="M71.1,84.5L71.1,84.5L71.1,84.5z"/>
						<path class="st3" d="M71.2,83.3c0,0,0,0.1,0,0.1C71.1,83.4,71.2,83.3,71.2,83.3z"/>
						<polygon class="st3" points="71.1,84.5 71.1,84.5 71.1,84.5 						"/>
						<path class="st3" d="M72.1,83.9L72.1,83.9C72.1,83.9,72.1,83.9,72.1,83.9z"/>
						<path class="st3" d="M70.4,85.1C70.3,85.1,70.3,85.1,70.4,85.1C70.4,85.1,70.3,85.1,70.4,85.1z"/>
						<path class="st3" d="M71.1,84.4L71.1,84.4L71.1,84.4z"/>
						<path class="st3" d="M71,84.4L71,84.4L71,84.4z"/>
						<path class="st3" d="M71.1,84.4L71.1,84.4L71.1,84.4z"/>
						<path class="st3" d="M71.1,84.4L71.1,84.4L71.1,84.4z"/>
						<polygon class="st3" points="71.1,84.4 71.1,84.4 71.1,84.4 						"/>
						<path class="st3" d="M71.2,84.5L71.2,84.5L71.2,84.5z"/>
						<polygon class="st3" points="70.1,84.8 70.2,84.8 70.2,84.8 						"/>
						<path class="st3" d="M70,84.9c0.2-0.1,0.2-0.1,0.2-0.1l0.5-0.3L70,84.9z"/>
						<path class="st3" d="M70.8,85.6l0,0.2c-0.1,0.3-0.1,0.2-0.1,0.5C70.8,85.6,70.7,86.2,70.8,85.6L70.8,85.6l0,0.1
							c0,0.3,0.1-0.5,0.1-0.4C70.9,85.4,70.9,85.5,70.8,85.6l0.1-0.2C70.9,85.4,70.9,85.5,70.8,85.6l0.1-0.1l0,0c0-0.1,0-0.3,0-0.3
							c0,0.1,0,0.1,0,0.2l0-0.2c0,0.2,0,0.3,0,0.3c-0.1,0.7,0-0.2,0,0.2l0,0.1c0,0.4,0,0.2,0,0.5c0-0.1,0-0.6,0.1-0.8
							c0,0.1,0,0.1,0-0.1c0,0.2,0,0.2,0,0.2l0,0.3c0-0.1,0-0.3,0-0.4c0,0,0,0.3,0,0.5c0,0,0-0.4,0-0.5c0,0.1,0,0,0-0.2
							c0,0.1,0,0.2,0,0.3l0-0.3c0,0,0,0.1,0,0.1c0,0,0-0.1,0-0.2c-0.3-0.3-0.5-0.6-0.7-0.7c0.3-0.1-0.5,0.2-0.1,0.1
							c-0.1,0-0.2,0.1-0.3,0.1c0.2-0.1,0.2-0.1,0.5-0.1l-0.2,0.1c0.2-0.1,0.5-0.2,0.7-0.2c0.1,0,0.1,0,0.1,0l0,0l0,0l0,0
							c-0.1,0-0.2,0.1-0.4,0.1l0.2-0.1c-0.2,0.1-0.4,0.1-0.6,0.2c0,0,0.1,0,0.1,0c0,0-0.1,0-0.1,0c0,0,0,0,0.1,0l-0.3,0.1l0.1,0
							L70,84.7c0.3-0.1,0.8-0.3,1-0.3c-0.2,0.1-0.4,0.2-0.7,0.3c0.3-0.1-0.1,0-0.1,0c0,0-0.2,0.1-0.2,0.1l0.3-0.1
							c-0.2,0.1-0.2,0.1-0.3,0.1c0.5-0.2,0.3-0.1,0.4-0.2c-0.2,0.1-0.3,0.1-0.3,0.1c-0.3,0.2,0.5-0.2,0.2-0.1c0,0,0,0-0.1,0
							c0.1-0.1,0,0-0.1,0.1l0,0c0,0,0,0,0.4-0.2c0,0-0.5,0.2-0.5,0.3l1-0.5c-0.2,0.1-0.8,0.4-1,0.5c0,0-0.1,0.1,0,0
							c0,0,0.5-0.2,0.5-0.3c-0.3,0.2-0.2,0.1-0.5,0.3c0.1,0,0.5-0.3,0.5-0.3c-0.1,0-0.5,0.3-0.5,0.3l0.5-0.3c-0.1,0-0.4,0.2-0.5,0.3
							c0.1-0.1,0,0,0,0l0.1-0.1c-0.1,0.1,0.7-0.4,0.6-0.4c-0.1,0.1-0.6,0.4-0.7,0.4c0.1,0,0.2-0.1,0.3-0.2c0.1-0.1,0.3-0.2,0.4-0.3
							c0.4,0.3,0.2,0.2,0.2,0.2l0,0l0,0c0.3,0.2-0.7-0.6-0.9-0.8c-0.1-0.1-0.1-0.1-0.1-0.1c-0.1-0.1-0.2-0.2-0.2-0.2l-0.1,0
							c0.3,0.2,0.3,0.2,0.5,0.4l-0.3-0.2c0.3,0.2,0.6,0.5,0.7,0.6c-0.1-0.1-0.5-0.4-0.5-0.4c0.1,0.1,0.2,0.1,0.1,0.1l-0.1-0.1
							c-0.1-0.1,0.3,0.3,0.1,0.1c0,0-0.3-0.3-0.2-0.1c0.2,0.2,0.9,0.7,1.1,0.8c0,0,0,0-0.1,0c-0.2-0.2-0.6-0.4-0.8-0.6
							c0.1,0.1,0.2,0.1,0.2,0.1c-0.1,0-0.2-0.1-0.2-0.1c0.3,0.2,0,0,0.2,0.2c0.1,0.1-0.1,0,0,0c0.2,0.1,0.6,0.4,0.6,0.4
							c-0.1,0-0.1-0.1-0.1-0.1c0,0-0.2-0.1-0.2-0.1c-0.1,0-0.2-0.1-0.3-0.2c0,0,0.2,0.1,0.2,0.1c-0.2-0.2,0,0-0.3-0.2
							c0.2,0.1,0.2,0.1,0.3,0.2c0.3,0.2,0.1,0-0.1,0c0.2,0.1,0.3,0.2,0.5,0.3l0,0l0,0c0,0,0,0,0,0l0,0l0,0l0,0c0,0-0.1-0.1,0,0
							c-0.2-0.1,0,0-0.2-0.1c0.1,0,0.1,0.1,0.2,0.1l0,0l0,0l0,0l0,0c0,0.1,0,0.1,0,0.7l0-0.3c0,0,0,0.1,0,0.1c0-0.2,0-0.1,0-0.5
							c0,0.4,0,0.2,0,0.5c0,0,0-0.1,0-0.1c0-0.1,0-0.1,0,0.1l0,0.2c0,0.2,0,0.5-0.1,0.4c0,0.3,0,0,0,0.3c0-0.4,0.1,0,0-0.4
							c0,0.2,0,0.2,0,0.3c0,0,0,0,0,0.1c0-0.2,0-0.6,0-1.3l0,0l0,0l0,0h0l0,0l0,0c0,0,0,0,0,0l0,0l0,0l0,0l0,0c0,0,0,0,0,0l0,0l0,0
							h0c0,0,0,0,0,0l0,0l0,0c0,0,0,0,0,0c0,0,0,0,0,0l0,0c0,0,0,0,0,0l0,0c0,0,0,0,0,0l0,0c0,0,0,0,0,0l0,0l0,0c0,0,0-0.1-0.1-0.2
							l0,0v0l0,0l0,0l0,0l0,0l0,0l0,0l0,0l0,0v0l0,0l0,0l0,0l0,0l0,0l0,0h0l0,0l0,0l0,0l0,0l0,0h0l0,0l0,0l0,0l0,0l0,0l0,0
							c-0.1-0.3,0-0.2-0.1-0.5v0c0-0.3,0,0.1,0-0.2l0,0.2c0,0.5,0-0.3,0-0.1l0,0.1c0-0.2,0.1-0.7,0.1-0.8c0,0,0-0.1,0-0.1
							c0-0.3,0,0.3,0,0.4c0-0.2,0-0.4,0-0.5c0-0.1,0,0.5,0,0.2c0,0.1,0,0.3,0,0.4c0,0,0.1-0.5,0-0.1l0-0.1c0,0.1,0,0.2,0,0.4
							c0.1-0.8-0.1,0.4,0.1-0.3l0,0l0-0.1c0,0,0,0.1-0.1,0.3c0,0,0-0.1,0-0.2c0-0.1,0-0.1,0,0.3l0.1-0.2c0,0.1,0,0,0-0.1
							c0,0,0-0.1,0-0.1c-0.2,0.1,0,0-0.9,0.2c0,0,0,0,0,0.1c0,0,0-0.1-0.1-0.1c0.2,0.2-0.5-0.4,0.1,0.2l0.2,0.2
							c0.1,0,0.3,0.3,0.4,0.4c0,0-0.2-0.2-0.2-0.2l0,0c-0.3-0.3-0.1-0.1-0.4-0.3c0,0-0.2-0.1-0.3-0.1l0.3,0.2l0,0
							c-0.1,0-0.2-0.1-0.2-0.2C70,83.7,70.3,84,70.4,84c-0.1-0.1-0.4-0.2-0.4-0.2l0,0l0,0c0.1,0.1,0.3,0.2,0.2,0.2
							c-0.1,0-0.2-0.1-0.2-0.1l0,0l0,0l0.3,0.1c0.1,0.1,0,0,0.3,0.2c-0.4-0.2-0.2,0-0.3-0.1c0.2,0.1,0.2,0.1,0.2,0.1
							c0.1,0,0.3,0.1,0.3,0.1C70.1,84,70.4,84.2,70,84c0.1,0.1,0.2,0.1,0.2,0.1c0,0.1,0,0.2,0,0.4c0,0,0.1,0,0.2,0
							c-0.1,0-0.2,0-0.4,0.1c0.3,0-0.1,0.1,0,0.2c0.1,0,0.2-0.1,0.3-0.1L70,84.8c0,0,0.5-0.2,0.2,0c0.1,0,0.2-0.1,0.2-0.1
							c-0.3,0.3,0.3-0.1-0.1,0.6c0.1-0.1,0.1-0.1,0.1-0.1c0,0,0.1-0.2,0.2-0.2c-0.1,0.1-0.1,0.2-0.2,0.3c0.2-0.2,0.1,0,0.2-0.2l0,0
							c0.2-0.3,0.5-0.7,0.8-1c-0.3,0.3,0.5-0.4,0.1,0c0.1-0.1,0.1-0.1,0.2-0.2c-0.1,0.1-0.2,0.2-0.1,0.1l0,0c0,0.1,0.2,0,0.3,0
							l-0.2,0.1c0,0,0.1,0,0.2-0.1c-0.3,0.2,0,0-0.4,0.2c0.4-0.2,0,0.1,0.5-0.2L71.8,84l0.1-0.1l-0.2,0.1c0,0,0.2-0.1,0.3-0.1
							c0,0,0,0,0,0c0.2,0,0,0.1,0,0.1l-0.1,0c-0.1,0.1,0.1,0.2-0.2,0.3l-0.1,0c0,0,0,0-0.1,0c-0.3,0.2-0.4,0.2-0.4,0.2l0,0
							c0,0,0,0,0,0h0c0,0,0,0,0,0h0c0,0,0,0,0,0l0,0l0,0l0,0c0,0,0,0,0,0c0,0,0,0,0,0l0,0l0,0l0,0c0,0,0,0,0,0c0,0,0,0,0,0l0,0
							c0,0,0,0,0,0l0,0c0,0,0,0,0,0c0,0,0,0,0,0l0,0c0,0,0,0,0,0l0,0l0,0l0,0c0,0,0,0,0,0l0,0c0,0,0,0,0,0l0,0l0,0l0,0c0,0,0,0,0,0
							h0c0,0,0,0,0,0l0,0l0,0l0,0c0,0,0,0,0,0l0,0l0,0l0,0l0,0c0,0,0,0,0,0l0,0l0,0l0,0l0,0l0,0l0,0l0,0c-0.3,1-0.2,0.5-0.5,1.5
							c0,0,0-0.1,0-0.1c0-0.1,0.1-0.2,0-0.1C70.7,85.6,70.7,85.6,70.8,85.6C70.7,85.6,70.6,85.9,70.8,85.6l-0.1,0.4
							c0-0.1,0.1-0.4,0.1-0.6c0-0.1-0.1,0.3-0.1,0.4C70.7,85.6,70.8,85.3,70.8,85.6C70.8,85.6,70.8,85.6,70.8,85.6z M70.9,85.4
							C70.9,85.5,70.9,85.6,70.9,85.4C70.9,85.2,70.9,85.4,70.9,85.4z M70.5,84.5C70.6,84.5,70.6,84.5,70.5,84.5
							C70.6,84.5,70.6,84.5,70.5,84.5z M71.1,84.4L71.1,84.4L71.1,84.4z M71.1,84.4L71.1,84.4L71.1,84.4L71.1,84.4z M70.2,83.9
							L70.2,83.9C70.2,83.9,70.2,83.9,70.2,83.9z"/>
						<path class="st3" d="M70.2,84.6l0.1,0C70.3,84.6,70.3,84.6,70.2,84.6z"/>
						<polygon class="st3" points="70.6,85.7 70.6,85.7 70.6,85.7 						"/>
						<path class="st3" d="M70.2,83.8c0,0,0.1,0,0.1,0.1C70.3,83.9,70.3,83.8,70.2,83.8z"/>
						<path class="st3" d="M71,85.9L71,85.9c0-0.1,0-0.1,0-0.1C71,85.8,71,85.9,71,85.9z"/>
						<path class="st3" d="M71,84.4C71,84.4,71,84.4,71,84.4l0,0.1C71,84.5,71,84.4,71,84.4z"/>
						<path class="st3" d="M71,85.1C71,84.9,71,84.9,71,85.1L71,85.1C71,85.3,71,85.2,71,85.1z"/>
						<path class="st3" d="M71,85L71,85L71,85z"/>
						<path class="st3" d="M71.1,84.4L71.1,84.4L71.1,84.4z"/>
						<polygon class="st3" points="71,84.4 71,84.7 71,84.5 						"/>
						<polygon class="st3" points="71.1,84.4 71.1,84.4 71.1,84.4 						"/>
						<path class="st3" d="M71.1,84.4c0,0,0,0,0,0.2C71,84.6,71,84.6,71.1,84.4z"/>
						<polygon class="st3" points="71,84.3 71,84.4 71,84.4 						"/>
						<path class="st3" d="M71.1,84.5L71.1,84.5C71.1,84.4,71.1,84.4,71.1,84.5C71.1,84.4,71.1,84.4,71.1,84.5z"/>
						<path class="st3" d="M70.6,84.2c0,0,0.1,0.1,0.2,0.1l-0.3-0.2L70.6,84.2z"/>
						<path class="st3" d="M70.6,84.1c-0.1,0-0.2-0.1-0.2-0.1C70.5,84.1,70.5,84.1,70.6,84.1z"/>
						<polygon class="st3" points="70.9,84.3 70.9,84.3 71.2,84.5 						"/>
						<path class="st3" d="M69.9,85.1c-0.1,0.1,0.3-0.2,0.1-0.1c0.1-0.1,0.1-0.1,0.2-0.1C70.1,85,70.2,84.9,69.9,85.1z"/>
						<path class="st3" d="M70.2,84.9C70.2,84.9,70.3,84.9,70.2,84.9C70.3,84.9,70.2,84.9,70.2,84.9z"/>
						<polygon class="st3" points="70.2,85.4 70.2,85.4 70.3,85.3 						"/>
						<path class="st3" d="M70.5,85.1l-0.2,0.3l0.7-0.9C70.9,84.6,71,84.4,70.5,85.1z"/>
						<path class="st3" d="M70.9,86.1L70.9,86.1c0-0.2,0-0.2,0-0.2L70.9,86.1z"/>
						<polygon class="st3" points="70.8,85.8 70.8,85.8 70.8,85.6 						"/>
						<path class="st3" d="M70.6,86.2C70.6,86.2,70.6,86.1,70.6,86.2C70.6,86.2,70.7,85.8,70.6,86.2z"/>
					</g>
					<g>
						<path class="st3" d="M77.1,85.7c-0.1-0.1-0.2,0.1-0.2,0.1C77,85.9,77.1,85.7,77.1,85.7z"/>
						<polygon class="st3" points="78.5,86.4 78.4,86.5 78.8,86.5 						"/>
						<path class="st3" d="M79.3,87.7c0.3-0.3-0.3-0.5-0.3-0.7l0-0.1l-0.3,0.1C78.9,87.1,79.3,87.4,79.3,87.7z"/>
						<path class="st3" d="M78.7,88.4c0.1,0,0.1,0.1,0-0.1C78.7,88.3,78.7,88.3,78.7,88.4C78.7,88.4,78.7,88.4,78.7,88.4z"/>
						<path class="st3" d="M78.7,88.4C78.6,88.3,78.6,88.4,78.7,88.4L78.7,88.4z"/>
						<path class="st3" d="M78.8,88.8c0,0-0.1-0.1-0.1-0.1c-0.1,0-0.1,0.1-0.2,0.1C78.5,88.8,78.6,88.8,78.8,88.8z"/>
						<path class="st3" d="M79,88.9L79,88.9C78.9,88.8,78.9,88.8,79,88.9z"/>
						<path class="st3" d="M78.9,88.7c0,0,0.1,0.1,0.1,0.1C79,88.8,79.1,88.8,78.9,88.7C79,88.8,78.9,88.7,78.9,88.7z"/>
						<path class="st3" d="M78.9,88.6c0.1-0.1,0.1-0.2,0.2,0C79.1,88.3,78.9,88.4,78.9,88.6z"/>
						<path class="st3" d="M79.6,87.6l0-0.2l-0.2-0.1C79.6,87.4,79.5,87.7,79.6,87.6z"/>
						<path class="st3" d="M78.4,89.1c0,0.1,0.2,0.1,0.2,0.2c0,0,0-0.1,0-0.1C78.5,89.2,78.5,89.2,78.4,89.1z"/>
						<path class="st3" d="M78.6,89.3c0,0.1,0,0.1,0,0.2C78.7,89.4,78.7,89.3,78.6,89.3z"/>
						<path class="st3" d="M79.4,89c-0.1-0.1-0.1-0.2-0.2-0.3C79.2,88.8,79.3,88.9,79.4,89L79.4,89z"/>
						<path class="st3" d="M78.1,89.3l0-0.2c0,0.1,0,0.2,0,0.3L78.1,89.3z"/>
						<path class="st3" d="M77.7,89.5c0-0.2-0.1-0.2-0.1-0.3c-0.1,0.1-0.2,0.2-0.2,0.3C77.5,89.4,77.6,89.4,77.7,89.5z"/>
						<path class="st3" d="M77.3,89.6c0,0,0.1-0.1,0.1-0.2C77.4,89.5,77.3,89.5,77.3,89.6z"/>
						<path class="st3" d="M78.4,89.6c0,0-0.1-0.1-0.2-0.1L78.4,89.6L78.4,89.6z"/>
						<path class="st3" d="M78.4,89.6L78.4,89.6c-0.1,0-0.1,0-0.1,0C78.3,89.6,78.3,89.6,78.4,89.6z"/>
						<path class="st3" d="M78.4,89.6L78.4,89.6C78.4,89.6,78.4,89.6,78.4,89.6z"/>
						<path class="st3" d="M79,89.3c0.1,0.1,0,0.4,0.3,0.3C79.2,89.5,79.1,89.5,79,89.3z"/>
						<path class="st3" d="M78.6,89.8l0.2-0.1c0,0-0.1-0.1-0.1-0.2C78.7,89.6,78.7,89.7,78.6,89.8z"/>
						<polygon class="st3" points="78.6,89.9 78.6,89.8 78.6,89.8 						"/>
						<path class="st3" d="M77.6,89.8c-0.1,0.1-0.2,0.1-0.3,0.1c0.1,0,0.2,0,0.4,0C77.7,89.9,77.7,89.8,77.6,89.8z"/>
						<path class="st3" d="M78,89.7L78,89.7C78,89.8,78,89.8,78,89.7z"/>
						<polygon class="st3" points="76.2,89.8 76.2,89.9 76.2,89.8 						"/>
						<path class="st3" d="M77.7,90c0.1,0,0.1,0,0.2-0.1C77.9,89.9,77.8,89.9,77.7,90C77.7,90,77.7,90,77.7,90z"/>
						<path class="st3" d="M77,89.7c0,0,0.1,0.1,0.2,0.1C77.1,89.8,77,89.7,77,89.7z"/>
						<path class="st3" d="M78,89.7L78,89.7C77.9,89.7,78,89.7,78,89.7z"/>
						<path class="st3" d="M78,89.7c0,0,0,0.1-0.1,0.2C78,89.8,78,89.8,78,89.7C78,89.7,78,89.7,78,89.7z"/>
						<path class="st3" d="M75.6,91.1c0-0.2,0.4-0.3,0.6,0c0.3-0.1,0.2-0.8,0.1-1.2c-0.1,0.1,0,0.2-0.4,0.2c0.2,0.2,0.5,0.4,0.3,0.5
							c-0.3,0-0.3-0.1-0.5-0.3c0.1,0.3-0.6,0.2-0.4,0.6l0.3,0C75.6,90.9,75.5,91,75.6,91.1z"/>
						<path class="st3" d="M76.7,90L76.7,90c0-0.1-0.1-0.1-0.2-0.3c-0.2,0.1-0.2,0.1-0.2,0.2C76.4,89.9,76.5,89.9,76.7,90L76.7,90z"
							/>
						<path class="st3" d="M77.1,90c-0.1,0.2-0.3,0.3-0.2,0.5c0.3,0,0.2-0.2,0.4-0.3C76.9,90.3,77.5,90.1,77.1,90c0.1,0,0.2,0,0.2,0
							c-0.1,0-0.1-0.1-0.2-0.1l0,0l0,0l0,0C77.2,89.9,77.2,89.9,77.1,90L77.1,90C77.2,89.9,77.2,89.9,77.1,90
							C77,89.9,77.1,89.9,77.1,90l0-0.1l0,0c-0.1,0-0.3,0.1-0.4,0.1C76.8,90,76.9,90,77.1,90z"/>
						<path class="st3" d="M79.5,90.1C79.5,90.1,79.5,90.1,79.5,90.1C79.5,90.1,79.5,90.2,79.5,90.1z"/>
						<path class="st3" d="M79.3,90.2c0,0,0-0.1,0.1-0.2c0.1,0,0.1,0.1,0.1,0.1c0-0.1,0-0.3-0.2-0.2l0,0c-0.2,0.1-0.5,0-0.5,0
							C79,90,79.1,90.1,79.3,90.2z"/>
						<path class="st3" d="M78.2,90.3c-0.1,0.1-0.2,0.1-0.3,0.2l0.2,0.1l0-0.1C78.3,90.5,78.2,90.4,78.2,90.3z"/>
						<path class="st3" d="M76.2,89.7l0.1-0.2c-0.1,0.1-0.2,0.2-0.4,0.2C76,89.8,76.2,89.8,76.2,89.7z"/>
						<polygon class="st3" points="75.3,89.5 75.4,89.3 75.1,89.3 						"/>
						<path class="st3" d="M61.4,78.1c0-0.1,0.1-0.1,0.1-0.2C61.4,77.9,61.4,78,61.4,78.1z"/>
						<path class="st3" d="M60.8,79.3L60.8,79.3C60.8,79.3,60.8,79.3,60.8,79.3z"/>
						<path class="st3" d="M67.9,88.5c-0.2-0.1-0.5-0.3-0.5-0.1l0,0.2C67.6,88.5,67.8,88.5,67.9,88.5z"/>
						<path class="st3" d="M62.6,85.6L62.6,85.6c-0.1,0.1,0,0.2,0,0.2C62.6,85.8,62.6,85.7,62.6,85.6z"/>
						<path class="st3" d="M61.9,85l0.3-0.1C62.2,84.9,62.1,84.9,61.9,85z"/>
						<path class="st3" d="M66.7,76.5c0-0.1,0-0.2,0-0.2C66.6,76.3,66.7,76.4,66.7,76.5z"/>
						<path class="st3" d="M71.5,93.3c-0.1,0-0.2,0-0.3,0C71.4,93.4,71.6,93.5,71.5,93.3z"/>
						<path class="st3" d="M63.1,79.6c0-0.1,0-0.1-0.1-0.1C63,79.5,63,79.6,63.1,79.6z"/>
						<path class="st3" d="M71,93.4C71.1,93.4,71.1,93.4,71,93.4c0.1,0,0.1-0.1,0.2-0.1C71.1,93.3,71.1,93.3,71,93.4z"/>
						<path class="st3" d="M80.5,78C80.5,78,80.5,78,80.5,78C80.6,78,80.6,78,80.5,78z"/>
						<path class="st3" d="M78.3,83c0,0,0.1-0.1,0.1-0.1C78.3,82.9,78.3,82.9,78.3,83z"/>
						<path class="st3" d="M72.8,90C72.8,89.8,72.8,90,72.8,90L72.8,90z"/>
						<path class="st3" d="M73.6,90c0,0.1,0,0.1,0.1,0.2C73.7,90.1,73.7,90.1,73.6,90z"/>
						<path class="st3" d="M70.2,94.7L70.2,94.7C70.2,94.8,70.2,94.8,70.2,94.7z"/>
						<path class="st3" d="M72.9,89.8c0,0.1-0.1,0.1-0.1,0.2C72.8,90,72.9,89.9,72.9,89.8z"/>
						<path class="st3" d="M72.8,89.7c0-0.1,0-0.1,0-0.2C72.8,89.5,72.8,89.5,72.8,89.7z"/>
						<path class="st3" d="M72.7,90.3c0-0.1,0-0.2,0.1-0.3c0,0,0,0,0,0C72.8,90.1,72.8,90.2,72.7,90.3z"/>
						<path class="st3" d="M73.2,74.1C73.2,74.1,73.2,74.1,73.2,74.1C73.4,74.2,73.3,74.1,73.2,74.1z"/>
						<polygon class="st3" points="63.8,91.6 63.8,91.6 63.8,91.6 						"/>
						<path class="st3" d="M63.2,91.6c0.3-0.2,0.4-0.1,0.6-0.1L63.8,91C63.6,91.2,63.4,91.4,63.2,91.6z"/>
						<path class="st3" d="M64.1,76.5c-0.1,0-0.3-0.1-0.4-0.1c0.4-0.4,0.8-0.3,0.4-0.6c0,0.3-0.4,0.4-0.8,0.5
							c-0.4,0.1-0.8,0.4-0.7,0.7c-0.1,0-0.2,0-0.3,0c0.1,0,0.1-0.1,0.1-0.1c-0.7,0.1-0.1,0.6-0.7,1c-0.2,0.1-0.4,0.3-0.3,0.1
							c-0.1,0.2-0.1,0.4-0.2,0.6c-0.1,0.1-0.2,0.1-0.1-0.1c-0.1,0.3-0.2,0.6-0.3,0.9l0,0c0.1,0.1,0.2,0.4,0.3,0.6
							c-0.1,0.2-0.1-0.1-0.2-0.1c0,0.2,0.1,0.3,0.2,0.4c-0.2,0.2-0.4-0.2-0.3-0.5c-0.7,0.4,0.1,0.4-0.1,1.3l-0.2-0.4
							c-0.3,0.3-0.1,0.7-0.2,1.2c0-0.2,0.3-1.1,0.6-0.7c0,0.1,0,0.3,0.2,0.5c-0.2,0.1-0.1,0.3,0.1,0.6l-0.3,0.1
							c0.2,0.3,0.4,0.1,0.6,0.2c0.2,0.3,0,0.5-0.1,0.7c0.3,0.5,0.1-0.5,0.5,0c0,0.1,0.1,0.2,0.1,0.3c0,0,0,0,0.1,0
							c0.1,0,0.2,0,0.4,0.1c0,0.1-0.2,0-0.3,0.1c0.1,0,0.2,0,0.4,0c0,0-0.1,0-0.1,0c0.2,0,0.4-0.1,0.7,0.1c0.2,0,0.2,0.1,0.1,0.1
							c-0.3,0.1-0.6,0.1-0.5,0.2c-0.1,0-0.2-0.1-0.4-0.1c0.1,0.2,0.1,0.2,0.2,0.5c-0.1,0-0.2,0-0.4,0.1c0.4,0,0.3,0.4,0.3,0.8
							c0.2,0,0.3,0,0.4,0c-0.1,0.2-0.1,0.3-0.2,0.5c-0.1,0-0.1-0.1-0.2-0.2l0,0.1c-0.2,0.1-0.3-0.1-0.4-0.3c0.1,0,0.2,0,0.3,0
							c-0.1-0.2-0.2-0.4-0.3-0.5c0,0.1,0,0.1,0,0.2c0-0.1,0-0.1-0.1-0.1c0,0,0,0.1,0,0.2l-0.4-0.1l0.1,0.1c-0.2,0.2-0.4,0.3-0.6,0.5
							c0.1,0.7,0.3,1.3,0.4,2c-0.2-0.2-0.4-0.1-0.7-0.1c0.3-0.2,0-0.7,0.2-1.1c-0.1,0.2-0.2,0.1-0.3,0c0,0.3,0,0.6,0.1,0.9
							c-0.2-0.1-0.2,0.1-0.3,0.4c0.5-0.1,0.3,0.7,0.6,1c-0.2,0.1-0.4,0-0.4-0.4c-0.3,0.6,0.7,0.5,0.5,1c0-0.1,0-0.2-0.1-0.2
							c0.2,0.2,0.4,0.7,0.3,0.7l-0.1-0.1c0.2,0.3,0.6,0.8,1,0.9c0.4,0.2,0.8,0.2,0.9,0c0,0.1-0.2,0.5-0.3,0.5c0.6-0.3,1-0.7,1.3-1.1
							c-0.1,0.3,0.2,1.2-0.4,1.4c0.1,0.1,0.3,0.2,0.7,0c-0.1-0.1-0.2-0.5-0.1-0.6c0.4,0.4,0.2,0.2,0.7,0.5c-0.2-0.1,0-0.6,0.2-0.6
							c0,0.1,0.1,0.6,0,0.6c0.2-0.2,0.4-0.4,0.5-0.6c-0.1,0.1,0,0.5,0.1,0.6c0-0.1,0.2,0,0.3-0.1c0,0-0.1-0.1-0.1-0.1
							c0.2,0,0.6-1,1.1-1.1c-0.2,0.2-0.6,0.9-0.5,0.9c0.1-0.1,0.4-0.5,0.7-0.6c0.3-0.2,0.7-0.2,0.8,0.1l-0.1,0.3
							c0.1,0.1,0.2,0.3,0.3,0.4c-0.2-0.1-0.6-0.2-0.9-0.1c-0.3,0-0.6,0.2-0.7,0.3c-0.1,0.2-0.2,0.2-0.1,0.4
							c-0.1,0.2-0.2,0.2-0.2,0.1l0,0.3c0.3-0.3,0.3,0,0.6-0.1c-0.2-0.1-0.3-0.2-0.4-0.2c0.3-0.3,0.8-0.4,0.9,0.1
							c-0.1,0.2-0.6,0.1-0.7,0.2c0.1,0,0.4,0.5,0.3,0.5l-0.3-0.2c0,0.4,0.6,0.3,0.5,0.9c0,0.1-0.1,0.6,0,0.5c0.2-0.4,1.2-1,1.5-1.1
							c0,0,0,0.7,0,0.9c-0.1,0.4-0.8,0.2-0.8,0.5c0.1-0.1,0.3,0,0.3,0c0.1,0.2-0.3,0.1,0,0.4c0.3-0.2,0.5,0.5,0.3-0.1
							c0.3,0.1,0.2,0.3,0.6,0.5c0-0.2,0.6-0.5,0.9-0.5c0,0.1,0,0.2,0,0.3c0.5,0.1,0.9,0.3,1.5,0.1c0.1,0.1,0.4,0,0.3,0.2
							c0.1-0.1,0.1-0.2,0.2-0.3c0.5,0-0.3,0.3,0.1,0.4c-0.1-0.2,0.3-0.5,0.4-0.8c-0.3-0.2-0.5,0.3-0.7,0.6c-0.2-0.4,0-0.9,0.1-1.4
							c0.2-0.3,0.3,0.1,0.3,0c0.5-0.6-0.2-0.9,0.3-1.3c0.3-0.1,0.5,0.2,0.7,0.2c-0.1,0.4-0.4,0.4-0.5,0.6l0.3-0.2
							c0,0.1,0,0.4-0.2,0.4c0.4,0,0.8-1.3,1-1.7c0-0.2-0.1-0.4-0.2-0.4l0,0.2c-0.2,0.1-0.2-0.7-0.3-0.5c-0.1-0.5-0.2-1.2,0-1.6
							l0.1,0.2l0.2,0.3c0,0-0.1-0.1-0.1-0.1c-0.1,0-0.1,0.2-0.1,0.4c0-0.2,0-0.2,0.1-0.3c0.3,0.2,0.5,0.4,0.5,0.1l-0.5-0.4
							c0.2-0.1,0.6-0.2,1.2,0.1c-0.3-0.5-0.1,0-0.6-0.6c0.5,0.7-1.4-0.7-0.6,0.2c-0.2-0.3-0.4-0.4-0.6-0.6c-0.1,0.2-0.1,0.4-0.3,0.5
							c0.1,0.1,0.2,0,0.1,0.5c0,0.1,0,0.2,0.1,0.2l0,0l0,0c0,0,0,0,0,0c0.1-0.1,0.1-0.1,0.2-0.1c0.2,0.5,0,1.2,0.1,1.5
							C73.1,91.4,73.1,91,73,91l0.1,0.4c-0.2-0.1-0.5,0.5-0.5-0.2c0,0.2-0.1,0.5-0.2,0.5c-0.2,0.1-0.3,0.3-0.3,0.4
							c-0.1,0.1,0.1,0.4,0,0.2c0,0.1-0.1,0.3-0.1,0.4l0,0c-0.2,0.3-0.4,0.9-0.9,0.6c-0.1,0.1-0.2,0.2-0.3,0.1l0-0.2
							c-0.1,0.1-0.2-0.2-0.3-0.1c0-0.3,0-0.3-0.2-0.4c-0.1-0.1-0.3-0.1-0.4-0.3l-0.2,0.2c-0.1-0.2-0.3-0.3-0.5-0.5L69,92.4
							c-0.1-0.1-0.2-0.2-0.2-0.4c0-0.1,0-0.2,0-0.3c0-0.1,0-0.1,0-0.2c0-0.1,0-0.2-0.1-0.3c0.1,0,0.1,0.3,0.1,0.3
							c0.1-0.4-0.1-1-0.2-1.4c-0.2-0.4-0.3-0.7-0.2-1.4c0-0.1-0.1-0.1-0.1-0.2c-0.1,0-0.1,0-0.2,0c0,0,0,0,0.1,0c0,0-0.1,0-0.1,0
							c-0.1,0-0.1,0-0.2,0c0.1,0,0.1,0.1,0.2,0.1c-0.2,0.1-0.4,0.2-0.7,0.4l0-0.3c0,0,0,0-0.1,0c-0.2,0-0.2,0.2-0.2,0.4
							c-0.1,0.1-0.3,0.2-0.4,0.3c-0.1-0.4-0.6,0.4-0.8,0c0,0.1-0.4,0.3-0.6,0.3c-0.1,0.1-0.3,0.2-0.3,0.4c0-0.1-0.1-0.1,0-0.1
							c-0.2,0-0.3-0.1-0.4,0l-0.1-0.3c-0.1,0.1-0.2,0.3-0.3,0.4c-0.2-0.2-0.2-0.3,0-0.5c-0.5,0.3-0.3,0.1-0.8,0.3l0.1-0.2
							c-0.1,0-0.4,0.1-0.4-0.1c0-0.2-0.3-0.4-0.5-0.7c-0.2-0.3-0.2-0.7,0-1c-0.6,0.1,0.3-0.3-0.1-0.4c0.1,0,0.2-0.1,0.3,0.1
							c0-0.4,0.4-0.4,0.1-0.8c0.1,0,0.1,0.2,0.2,0.2c0,0-0.1-0.2,0-0.2c0.1,0,0.1,0.1,0.1,0.2c0.2-0.3-0.2-0.6-0.5-0.8
							c0.3-0.1,0.3-0.2,0.2-0.5c0.2,0,0.3,0,0.2,0.2c0,0,1.1-0.9,0.8-1c0.1,0,0.3-0.2,0.3-0.3c0.5-0.3,0.5-0.3,0.9-0.7l-0.2,0.1
							C65,84.2,65,84.2,65,84.1c-0.1-0.1-0.1-0.2-0.3-0.3l0.1,0c-0.4-0.7-0.5-0.2-0.8-0.9L63.7,83c-0.5,0.2-0.3-0.7-0.6-0.9l0,0.2
							c-0.3-0.1,0.3-0.8,0.3-1c0-0.1,0.1,0,0.1,0c0.1-0.5-0.3,0.1-0.5-0.2c0.1-0.1,0.4-0.1,0.4-0.3c0.1-0.1-0.7-0.4-0.4-0.7
							c-0.1,0-0.3,0.1-0.4,0c0-0.3,0.5-0.4,0.3-0.7c0,0,0.1,0,0.1,0c0-0.2,0.1-0.5,0.1-0.7c0.3,0.3,0.4,0.1,0.6-0.1
							c0.2-0.2,0.5-0.4,0.5,0c0.2,0,0.4-0.1,0.6-0.1l0,0.1c0.4,0,0.5-0.1,0.7-0.3c0.1,0.1,0,0.1,0,0.2c0.5,0.2,0.8,0.3,1.5,0.1
							L67,79c0.1-0.1,0.9,0.6,1.7,0.9c0-0.3,0.1-0.6,0-0.9c0,0,0.1,0.1,0.1,0.2c0-0.7,0.2-1.3,0.4-1.9c0-0.1,0.1-0.1,0.1-0.2
							c0-0.1,0.1-0.1,0.1-0.2c0-0.1,0.1-0.1,0.1-0.2c0-0.1,0-0.2-0.2-0.4c0-0.2,0-0.3,0-0.5c-0.3,0.5-0.3-0.3-0.5-0.1
							c0.1-0.3,0.6-0.4,0.4-0.1l-0.1,0c0.3,0.3,0.5-0.5,0.8-0.2c0.3-0.4,0.8-0.5,1.1-0.5c0.4,0,0.7,0.2,1,0.4l0.1-0.4
							c0.1,0.1,0.2,0.1,0.2,0.2c0,0.1-0.1,0.3-0.2,0.1c0,0.2,0.4,0.1,0.4,0c0.2,0.4-0.4,0.2-0.3,0.3l0.1,0.1l0-0.1
							c0.2,0,0.3-0.1,0.5,0.1c0,0.2-0.1,0.2-0.1,0.3c0,0,0,0,0,0.1c0.1,0.1,0.1,0.2,0.2,0.4l0.2-0.3c0.2,0.1,0.2,0.4,0.4,0.1
							c-0.1,0.1-0.1,0.3-0.1,0.5c0,0.1,0,0.2,0.1,0.3l0.1,0.5c0.1,0.7,0.2,1.3,0.2,1.5c0.1,0.1,0.2,0.3,0.2,0.6
							c0.2-0.1,0.4-0.2,0.6-0.2c-0.1,0,0.1-0.5,0.4-0.5c-0.5,0.9,0.6,0.1,1,0.5c-0.2-0.1,0.2-0.2,0.5-0.3c0.2-0.1,0.4-0.1,0.2-0.3
							c0.3,0,0,0.2,0.2,0.4c0.6-0.3,1.2,0.2,1.7,0.3c0-0.1,0-0.2,0.2-0.3c0,0.2,0,0.4,0,0.5c0.1,0,0.4-0.3,0.3,0
							c0-0.1,0.1-0.2,0.2-0.1c0.2,0.5,0.4,1,0.3,1.6c-0.1,0.6-0.5,1.3-1.3,1.6c0.2,0,0.2,0.1,0.1,0.2c0.1,0,0.2,0.1,0.3,0.2
							c-0.2,0.1-0.4,0.1-0.7,0.2c0.1,0.3-0.5,0.4-0.4,0.7l0.1-0.2c0,0.5,0.8,0.4,1.1,0.8c0-0.5,1.1-0.2,1.1-1.1c0.2,0,0,0.2,0.2,0.2
							c-0.1-0.2,0-0.4,0.3-0.6l0,0.1c0.4-0.9,0.9-1.1,1.1-2.4l-0.2,0.1c0.1-0.3,0.1-0.3,0.2-0.5c-0.3-0.3,0,0.8-0.4,0.5
							c0.3-0.1,0.3-0.6,0.2-1.1c-0.1-0.5-0.3-0.9-0.2-1.1c-0.3-0.4-0.1,0.3-0.4-0.1l0-0.2l-0.2,0c-0.2-0.2-0.2-0.4-0.1-0.6
							c0,0.1,0.2,0.1,0.3,0.2c-0.2-0.4-0.9-0.6-1-0.7c0.1,0.1,0.2,0.2,0.3,0.3c-1.1-0.5-2.4-0.7-3.3-0.3l0.1,0.1
							c-0.4,0.2-0.4,0.1-0.5,0.1c-0.1,0-0.1-0.1-0.3,0l0,0c-0.1,0.1-0.2,0.2-0.4,0.3c0.2-0.2,0-0.2,0.2-0.4
							c-0.1,0.1-0.2,0.2-0.2,0.2c-0.1,0-0.1,0.2-0.4,0.3l0.1-0.3c-0.1,0.1-0.2,0.1-0.3-0.1c0.2,0.1,0.2-0.3,0.4-0.3
							c0.1-0.3,0-0.4-0.1-0.5c-0.1-0.1-0.3-0.3-0.1-0.6c-0.6-0.2,0,0.8-0.2,0.6c-0.1,0.2-0.5-0.2-0.5-0.4c-0.1-0.2,0.4-0.7,0-1.3
							c0,0.1,0.1,0,0.1,0.1c0-0.3-0.4-0.3-0.5-0.7c-0.4,0.1-0.3-0.3-0.6-0.1c0.2,0.1,0.3,0.3,0.5,0.4c-0.3-0.2-0.8-0.1-1.2-0.6
							c0.1,0,0.3,0,0.4,0c-0.1-0.2-0.3-0.1-0.4-0.3c0.3-0.3,0.7,0.4,1.2,0.5c0-0.3-0.8-0.3-0.3-0.5c-0.6,0.2-0.6-0.6-1.3-0.4
							l0.1-0.2c-0.1,0-0.3,0-0.5,0c0.1-0.1,0.2-0.1,0.4-0.2c-0.5,0.1-0.9-0.4-1.4-0.3c1,0,0.2,0.3,0.6,0.5c-0.6,0.1-0.7,0-0.9-0.1
							c-0.2-0.1-0.5-0.3-1.1,0c0.1-0.1,0.7-0.1,0.5,0.1c-0.3,0-0.6,0.1-0.8,0.1c-0.7,0.5,0.2,0.1,0,0.4c-0.4-0.1-0.2,0.3-0.4,0.6
							l-0.2-0.2c-0.7,0.5,0.2,0.5-0.4,0.9c0-0.1-0.1-0.3-0.1-0.4c-0.1,0.1-0.1,0.2-0.2,0.4l-0.2-0.2c-0.1,0.5-0.2,0.5-0.4,0.9
							c0.2,0,0.4,0.2,0.2,0.5c-0.2,0.1-0.2-0.2-0.3,0.2c-0.1,0-0.2-0.3,0-0.4c-0.1-0.1-0.1-0.2-0.2-0.2c-0.1,0.1-0.2,0.2-0.2,0.4
							c0,0.1,0,0.1,0,0.1c0,0,0,0,0.1,0c0.1,0.1,0.1,0.3,0.2,0.4c-0.1,0-0.1-0.1-0.2-0.2c0,0.1,0.1,0.2,0.1,0.3
							c-0.1-0.2-0.3-0.4-0.4-0.5c0,0.1,0.1,0.2,0.1,0.3c-0.1-0.1-0.2-0.2-0.2-0.3c0,0,0,0,0,0.1c0,0.1,0,0.3-0.1,0.2
							c0,0,0,0.1,0,0.1c-0.2-0.1,0-0.3-0.8-0.2l-0.3-0.4c-0.5,0,0.4,0.5-0.4,0.5c-0.5,0.1-0.2-0.3-0.4-0.4c-0.3,0.2-0.7,0.5-1.3,0.4
							C63.8,76.5,63.9,76.6,64.1,76.5z M60.9,81.3c-0.1-0.1-0.3-0.3-0.2-0.4C61,80.9,60.9,81.1,60.9,81.3z M61.8,86
							c0-0.1,0.1-0.2,0.2-0.2C61.9,85.8,61.9,85.9,61.8,86z M72.5,92L72.5,92C72.4,92.2,72.4,92.1,72.5,92z M72.7,91.8
							C72.7,91.7,72.7,91.7,72.7,91.8c0,0-0.1,0.1-0.1,0.1C72.7,91.9,72.7,91.9,72.7,91.8z M72.9,76.1L72.9,76.1
							C73,76.1,72.9,76.1,72.9,76.1z"/>
						<path class="st3" d="M62,85.1c0,0,0.1,0,0.1,0C62.1,85,62.1,85,62,85.1z"/>
						<polygon class="st3" points="66.7,76.6 66.7,76.6 66.7,76.5 						"/>
						<path class="st3" d="M68.1,94.5c0-0.1-0.1-0.2,0-0.2C68,94.3,68,94.4,68.1,94.5z"/>
						<path class="st3" d="M73.5,88.5l-0.4-0.1c0.2,0.1,0.3,0.2,0.4,0.3C73.5,88.6,73.4,88.4,73.5,88.5z"/>
						<path class="st3" d="M76.6,91.1c0,0,0.1,0,0.1,0l0-0.1C76.6,91,76.5,91,76.6,91.1z"/>
						<path class="st3" d="M74.3,89.7c0.1,0.3,0.3,0.3,0.5,0.3c0,0,0,0,0,0C74.8,89.7,74.5,89.7,74.3,89.7z"/>
						<path class="st3" d="M74.9,90c0.1,0,0.1,0,0.2,0.1C75.1,90,75,90.1,74.9,90z"/>
						<path class="st3" d="M72.8,90.9c0.1-0.1-0.2-0.3-0.1-0.3C72.5,90.2,72.8,91.8,72.8,90.9z"/>
						<polygon class="st3" points="74.8,90.6 74.6,90.3 74.6,90.5 						"/>
						<path class="st3" d="M73.8,90.9l0.1-0.2c0,0-0.1-0.1-0.1-0.2C73.9,90.6,73.8,90.8,73.8,90.9z"/>
						<path class="st3" d="M73.9,90.4c0-0.1,0-0.2,0-0.3C73.9,90.2,73.9,90.3,73.9,90.4z"/>
						<polygon class="st3" points="74.4,90.6 74.3,90.5 74.1,90.4 						"/>
						<path class="st3" d="M72.5,93.7c-0.1,0.1-0.1,0.2-0.2,0.3c0,0.1,0.1,0.1,0.2,0C72.5,93.9,72.6,93.7,72.5,93.7z"/>
						<path class="st3" d="M73.6,93.3c-0.1,0.1-0.1,0-0.2,0l0.3,0.2C73.6,93.5,73.6,93.4,73.6,93.3z"/>
						<path class="st3" d="M73,94.2c0,0.1-0.2,0.6,0.1,0.2C73.1,94.3,73.3,94,73,94.2z"/>
						<polygon class="st3" points="68.4,93.5 68.5,93.6 68.9,93.3 						"/>
						<path class="st3" d="M66.2,91.8c0,0.1,0.2-0.4,0.2-0.2c0.1-0.2,0-0.1,0.1-0.2C66.3,91.5,66.3,91.5,66.2,91.8z"/>
						<path class="st3" d="M66.5,91.3c0,0,0.1-0.1,0.1-0.1C66.5,91.3,66.5,91.3,66.5,91.3z"/>
						<polygon class="st3" points="77.5,83.3 77.3,83.4 77.5,83.4 						"/>
						<path class="st3" d="M77.4,83.9l-0.2-0.2l0.1,0.3C77.3,83.9,77.3,83.8,77.4,83.9z"/>
						<path class="st3" d="M60.6,82.4L60.6,82.4c0.1-0.1,0.1-0.2,0.1-0.3L60.6,82.4z"/>
						<polygon class="st3" points="61.5,77.5 61.4,77.5 61.7,77.6 						"/>
						<path class="st3" d="M65.1,75.8c-0.2,0-0.3,0-0.5,0C65,75.8,65.2,76.2,65.1,75.8z"/>
					</g>
				</g>
			</g>
		</g>
	</g>
	<g>
		<g>
			<path class="st3" d="M60.7,10.1c0-0.1-0.2,0-0.2,0C60.6,10.3,60.7,10.1,60.7,10.1z"/>
			<path class="st3" d="M61.6,12L61.6,12c0,0.1,0.1,0.2,0.2,0.3C61.7,12.2,61.7,12.1,61.6,12z"/>
			<path class="st3" d="M61.7,14.2c0.4-0.2-0.1-0.8,0.1-1.2l0.1-0.1l-0.3-0.2C61.6,13.2,61.8,13.9,61.7,14.2z"/>
			<path class="st3" d="M60.8,15.3c0.1-0.1,0.1,0.3,0.1-0.3c0,0,0,0,0,0C60.8,15.1,60.8,15.2,60.8,15.3z"/>
			<path class="st3" d="M60.8,15.1C60.9,14.9,60.7,15.2,60.8,15.1L60.8,15.1z"/>
			<path class="st3" d="M60.8,16.2l-0.1-0.3c-0.1,0.1-0.1,0.3-0.2,0.2C60.6,16.4,60.7,16.3,60.8,16.2z"/>
			<path class="st3" d="M61.1,16.5l0-0.2C61,16.3,61,16.4,61.1,16.5z"/>
			<path class="st3" d="M61,16l0.1,0.3c0.1,0,0.2,0,0-0.2C61.1,16.2,61,16.1,61,16z"/>
			<path class="st3" d="M61,15.8c0.1-0.2,0.2-0.4,0.3-0.1C61.3,15.1,61,15.2,61,15.8z"/>
			<path class="st3" d="M62,14.3l0.1-0.2c0-0.1-0.1-0.1-0.1-0.2C62.1,14,61.9,14.3,62,14.3z"/>
			<path class="st3" d="M60.4,18c0.1,0,0.2-0.1,0.3-0.1l-0.1-0.2C60.6,17.8,60.5,18,60.4,18z"/>
			<path class="st3" d="M60.7,18c0,0.1,0.1,0.2,0.1,0.4C60.8,18,60.8,18,60.7,18z"/>
			<polygon class="st3" points="61.4,16.6 61.2,16 61.4,16.7 			"/>
			<polygon class="st3" points="60.1,19.3 60,19.1 60.2,19.5 			"/>
			<path class="st3" d="M60,20.2c-0.1-0.2-0.3,0.1-0.3,0c0,0.2,0.1,0.5,0.1,0.7C59.8,20.6,59.9,20.4,60,20.2z"/>
			<path class="st3" d="M59.9,21.2c0-0.1,0-0.2-0.1-0.3C59.8,20.9,59.8,21,59.9,21.2z"/>
			<path class="st3" d="M60.6,18.9c0,0-0.2,0-0.3,0.2l0.2-0.1C60.6,19,60.6,18.9,60.6,18.9z"/>
			<path class="st3" d="M60.6,19L60.6,19c0,0.1-0.1,0.2-0.1,0.3C60.5,19.3,60.6,19.2,60.6,19z"/>
			<path class="st3" d="M60.6,18.9L60.6,18.9C60.7,18.9,60.7,18.9,60.6,18.9z"/>
			<path class="st3" d="M61.1,17.5c0.1,0.2,0.2,0.7,0.4,0.3C61.4,17.6,61.3,17.8,61.1,17.5z"/>
			<path class="st3" d="M60.9,18.7l0.1-0.4c-0.1,0-0.1,0-0.2-0.1L60.9,18.7z"/>
			<polygon class="st3" points="61,18.9 60.9,18.7 60.9,18.9 			"/>
			<path class="st3" d="M60.2,20.6c0.1,0.2,0,0.3,0,0.5c0.1-0.2,0.2-0.4,0.2-0.6C60.4,20.5,60.3,20.4,60.2,20.6z"/>
			<path class="st3" d="M60.4,19.8L60.4,19.8C60.5,19.8,60.5,19.8,60.4,19.8z"/>
			<polygon class="st3" points="59.8,23 59.8,23 59.8,23 			"/>
			<path class="st3" d="M60.5,20.5c0.1-0.1,0-0.3,0-0.4C60.5,20.3,60.4,20.4,60.5,20.5C60.5,20.5,60.5,20.5,60.5,20.5z"/>
			<path class="st3" d="M59.9,21.7c0.1-0.1,0.1-0.2,0.2-0.2C60,21.5,59.8,21.7,59.9,21.7z"/>
			<path class="st3" d="M60.4,19.9C60.4,19.9,60.4,19.9,60.4,19.9C60.3,19.9,60.3,19.9,60.4,19.9z"/>
			<path class="st3" d="M60.4,19.9c0,0.1,0.1,0.2,0.1,0.2C60.5,20,60.5,19.9,60.4,19.9C60.4,19.9,60.4,19.9,60.4,19.9z"/>
			<path class="st3" d="M61,23.9c-0.2-0.1-0.2-0.5,0-0.8c-0.1-0.4-0.7-0.3-1.2-0.1c0.1,0,0.2,0.1,0.2,0.4c0.1-0.1,0.4-0.7,0.5-0.4
				c0,0.5-0.2,0.4-0.3,0.6c0.3-0.1,0.2,0.7,0.6,0.7l0-0.4C60.8,23.8,60.9,24,61,23.9z"/>
			<path class="st3" d="M60,22.3l0-0.2c-0.1,0.2-0.2,0.3-0.4,0.4c0,0.3,0.1,0.3,0.2,0.4L60,22.3L60,22.3z"/>
			<path class="st3" d="M60.2,21.5c0.2,0.2,0.2,0.5,0.5,0.4c0.1-0.4-0.1-0.3-0.1-0.6C60.4,22,60.4,21,60.2,21.5c0-0.1,0-0.3,0.1-0.4
				c-0.1,0.1-0.1,0.2-0.2,0.3l0,0v0l0,0C60.1,21.4,60.1,21.4,60.2,21.5L60.2,21.5C60.1,21.5,60.1,21.5,60.2,21.5
				C60.1,21.7,60.1,21.5,60.2,21.5l-0.1-0.1l0,0l0,0.7C60.1,22,60.1,21.8,60.2,21.5z"/>
			<path class="st3" d="M61.9,18.2C61.9,18.2,61.9,18.2,61.9,18.2C61.9,18.2,61.9,18.3,61.9,18.2z"/>
			<path class="st3" d="M61.7,18.5c0-0.1-0.1-0.1,0-0.3c0.1-0.1,0.1,0,0.2,0c0-0.1-0.1-0.4-0.2-0.1l0,0.1c-0.1,0.3-0.5,0.6-0.5,0.5
				C61.4,18.7,61.5,18.6,61.7,18.5z"/>
			<path class="st3" d="M61,20l0,0.6l0.2-0.3l-0.1,0C61.2,20,61.1,20.1,61,20z"/>
			<polygon class="st3" points="59.7,23 59.5,22.9 59.7,23.3 			"/>
			<polygon class="st3" points="59.5,23.8 59.3,23.7 59.4,23.9 			"/>
			<path class="st3" d="M44.2,24.6l-0.1-0.2C44.1,24.5,44.2,24.5,44.2,24.6z"/>
			<path class="st3" d="M44.5,25.8l0.1,0C44.6,25.8,44.5,25.8,44.5,25.8z"/>
			<path class="st3" d="M53.5,41.1c-0.2-0.1-0.4-0.3-0.2-0.1l0.1,0.2C53.5,41.1,53.5,41.1,53.5,41.1z"/>
			<path class="st3" d="M48.9,35.5L48.9,35.5c0.1,0.1,0.1,0.2,0.2,0.2C49,35.6,49,35.6,48.9,35.5z"/>
			<path class="st3" d="M48,35.6l0-0.4C48,35.3,48,35.5,48,35.6z"/>
			<path class="st3" d="M42.5,17.6l-0.2-0.2C42.3,17.8,42.4,17.6,42.5,17.6z"/>
			<path class="st3" d="M57.3,31.4c-0.2,0.2-0.2,0.3-0.3,0.5C57.2,31.7,57.5,31.5,57.3,31.4z"/>
			<path class="st3" d="M46.5,24.5c-0.1-0.1-0.1-0.1-0.2-0.1C46.4,24.5,46.5,24.5,46.5,24.5z"/>
			<path class="st3" d="M56.8,32.5C56.9,32.4,56.9,32.4,56.8,32.5c0.1-0.3,0.1-0.4,0.2-0.6C56.9,32,56.8,32.2,56.8,32.5z"/>
			<path class="st3" d="M53.6,9.8C53.6,9.8,53.6,9.8,53.6,9.8C53.6,9.8,53.6,9.8,53.6,9.8z"/>
			<path class="st3" d="M59.8,8.5c-0.1,0-0.1-0.1-0.2-0.1C59.6,8.4,59.6,8.4,59.8,8.5z"/>
			<path class="st3" d="M58.6,26.8C58.6,26.6,58.6,26.7,58.6,26.8L58.6,26.8z"/>
			<path class="st3" d="M59.6,26.2C59.7,26.3,59.7,26.3,59.6,26.2C59.7,26.3,59.7,26.3,59.6,26.2z"/>
			<path class="st3" d="M57.5,34.5L57.5,34.5C57.6,34.5,57.6,34.5,57.5,34.5z"/>
			<path class="st3" d="M58.8,26.6c0,0.1-0.1,0.1-0.1,0.2C58.7,26.7,58.7,26.7,58.8,26.6z"/>
			<path class="st3" d="M58.7,26.6c0-0.1,0-0.1,0.1-0.1C58.7,26.4,58.7,26.4,58.7,26.6z"/>
			<path class="st3" d="M58.6,27c0-0.1,0.1-0.2,0.1-0.2c0,0,0,0,0,0C58.6,26.8,58.6,26.9,58.6,27z"/>
			<path class="st3" d="M46.8,6.5C46.8,6.5,46.8,6.5,46.8,6.5C47.1,6.4,47,6.4,46.8,6.5z"/>
			<path class="st3" d="M52.1,45.1C52.1,45.1,52.1,45.1,52.1,45.1L52.1,45.1L52.1,45.1z"/>
			<path class="st3" d="M51.6,44.5c0.3,0,0.4,0.2,0.5,0.6c0-0.4,0.1-0.8,0.1-1.2C52,44.2,51.8,44.4,51.6,44.5z"/>
			<path class="st3" d="M43.4,21.6L43.3,22c-0.4-0.4-0.4-0.8-0.6-0.4c0.7-0.1,0.4,1.6,1.1,1.5l-0.1,0.3c0-0.1-0.1-0.1-0.1-0.2
				c-0.2,0.6,0.6,0.3,0.6,1c0,0.2,0,0.4-0.2,0.3l0.3,0.5c0,0.2-0.1,0.1-0.1,0l0.3,0.8l0,0c0.1,0.1,0.4,0.3,0.5,0.4
				c0,0.2-0.1-0.1-0.2,0l0.3,0.4c-0.1,0.2-0.4-0.1-0.4-0.4c-0.5,0.6,0.3,0.3,0.2,1.3l-0.2-0.4c-0.3,0.4-0.1,0.7-0.1,1.2
				c0.1-0.1,0.3-1.1,0.6-0.7c0,0.1,0,0.3,0.2,0.6c-0.2,0.1-0.1,0.3,0,0.6l-0.3,0.1c0.2,0.3,0.3,0.2,0.5,0.4c0.1,0.4-0.1,0.5-0.3,0.7
				c0.1,0.6,0.2-0.5,0.5,0.2c0,0.5,0.3,0.8,0.7,1.4c0,0.4-0.2,0-0.2,0.2l0.3,0.2c0,0.1-0.1,0.1-0.1,0.1c0.2,0.2,0.3-0.1,0.5,0.3
				c0.4,0-0.2,1,0.4,1.4c0,0.2-0.2,0-0.3,0.1c0.5,0.6,0.4,0.5,0.9,1l0,0.5c0.1-0.4,0.5-0.1,0.9,0.2c0.1-0.2,0.1-0.3,0.1-0.4l0.4,0.6
				c0,0.1-0.1,0.1-0.3,0l0.1,0.1c0,0.3-0.2,0.2-0.5,0.1c0-0.1,0.1-0.2,0.1-0.3c-0.2-0.1-0.5-0.2-0.7-0.1c0,0,0.1,0.1,0.2,0.2
				c-0.1,0-0.1,0-0.1,0c0,0,0.1,0.1,0.2,0.1l-0.3,0.3l0.1,0l0.1,0.9c0.6,0.5,1.3,0.8,1.8,1.6c-0.3-0.1-0.4,0.1-0.7,0.2
				c0.2-0.4-0.4-0.7-0.5-1.2c0.1,0.3-0.1,0.3-0.2,0.2l0.6,0.7c-0.2,0.1-0.1,0.3-0.1,0.5c0.4-0.4,0.6,0.5,0.9,0.8
				c-0.1,0.1-0.3,0.1-0.5-0.4c-0.1,0.6,0.8,0.4,0.7,0.9c0-0.1,0-0.2-0.1-0.2c0.2,0.2,0.4,0.8,0.2,0.7l0-0.1c0.1,0.2,0.1,0.4,0.3,0.7
				c0.2,0.3,0.3,0.6,0.5,0.9c0.3,0.6,0.6,0.9,0.8,0.7c0,0.1-0.3,0.5-0.4,0.5c0.5,0,1-0.1,1.2-0.7c-0.1,0.3-0.1,0.9-0.2,1.4
				c-0.1,0.5-0.1,0.9-0.4,0.7c0.1,0.3,0.3,0.7,0.5,1c-0.1-0.3-0.1-1.3,0-1.2c0.1,0.6,0.1,0.8,0.2,1c0,0.1,0.1,0.2,0.1,0.4
				c0,0.1,0.1,0.6,0.2,0.4c-0.1,0.1,0-1.4,0.1-1.6c0,0.2,0.1,1.1,0,1.3c0.1-0.7,0.3-1.3,0.3-1.9c-0.1,0.4,0.1,0.9,0.2,0.9
				c-0.1-0.1,0.4-0.8,0.5-1.1l-0.3,0.2c0.6-1,0.1-1.9,0.4-2.6c0.1,0.2,0.4,0.8,0.7,0.4c-0.1-0.2-0.2-0.7-0.4-1.1
				c-0.2-0.4-0.4-0.8-0.3-1.2l0.2-0.1l0-0.6c0.2,0.5,0.8,1.6,0.8,2.4c0.3-0.3,0.3-0.1,0.4-0.5c0.2-0.1,0.1,0.3,0,0.5l0.5-1
				c-0.3-0.1,0-0.9-0.3-0.9l-0.1,1.2c-0.3-0.1-0.6-1-0.3-1.6c0.2-0.1,0.5,0.4,0.6,0.4c-0.1-0.1,0.1-0.7,0.2-0.8l0,0.4
				c0.3-0.3-0.2-0.8,0.3-1.1c0.1-0.2,0.6-0.3,0.4-0.4c-0.5,0.1-1.6-0.3-1.8-0.5c0,0,0.7-0.7,0.9-0.8c0.4-0.2,0.5,0.6,0.8,0.5
				c-0.1,0-0.1-0.2-0.1-0.3c0.1-0.1,0.2,0.2,0.3-0.2c-0.3-0.2,0.3-0.7-0.2-0.3c0-0.4,0.2-0.4,0.3-0.8c-0.3,0.1-0.6-0.6-0.5-1
				c0.1,0.1,0.2,0,0.3,0c0.3-0.7,0.6-1.1,0.8-1.8c0.1,0,0.3-0.3,0.4-0.1c0-0.1-0.1-0.2,0-0.5c0.4-0.3-0.1,0.5,0.3,0.3
				c-0.2-0.1-0.1-0.6-0.1-1c-0.3,0-0.3,0.7-0.3,1c-0.4-0.1-0.6-0.8-0.6-1.6c0.1-0.6,0.3-0.2,0.3-0.3c0.4-1.1-0.4-1.1,0.2-1.9
				c0.4-0.3,0.5,0.1,0.7,0.1c-0.1,0.5-0.4,0.7-0.5,1l0.2-0.4c0,0.2,0,0.5-0.1,0.7c0.3-0.2,0.6-1.8,1.1-2.6c0-0.2-0.1-0.5-0.2-0.4
				l0,0.3c-0.3,0.2-0.1-0.6-0.3-0.3c0-0.4-0.2-0.9,0.1-1.3l0.3,0c-0.1,0-0.3,0.3-0.2,0.4c-0.1-0.2,0.6-0.7,0.3-1l-0.3,0.3
				c-0.1-0.4-0.2-0.9,0-1.3c-0.3,0.1,0,0.1-0.4,0.3c0.5-0.2-0.3,1.1,0.2,0.8c-0.5,0.2-0.3,0.5-0.8,0.8c0.1,0,0.2-0.1,0.1,0.3
				c0,0,0,0.1,0.1,0.1l0,0l0,0c0,0,0,0,0,0c0.1-0.1,0.1-0.1,0.2-0.1c0.2,0.2,0,0.8,0,1.1c-0.1,0.2-0.1-0.1-0.2,0l0.1,0.3
				c-0.2,0-0.5,0.5-0.5-0.1l-0.1,0.5c-0.2,0.2-0.4,0.6-0.3,0.9c-0.1,0.2,0.1,0.6,0,0.4l-0.1,0.8l-0.1,0c-0.2,0.7-0.1,1.6-0.8,2.3
				c0,0.3,0,0.5-0.2,0.9l-0.2,0c0,0.3-0.5,0.8-0.4,1c-0.6,0.1-0.6,1.4-0.9,1.9l0.2,0.1c-0.2,0.4-0.2,0.7-0.3,1.2l0.2,0.1
				c0,0.5-0.5,0.9-0.8,1.6c-0.1-0.1,0-0.2,0.1-0.3c-0.4,0.3-0.5,0.7-0.5,1.1c-0.1,0.4-0.1,0.9-0.3,0.9c0,0.1,0,0.2-0.1,0.2
				c0,0,0,0,0,0c0,0,0,0,0,0l-0.1,0c0,0,0.1,0,0.1,0c0,0.1,0,0.2-0.1,0.3l-0.2-0.2l0,0c-0.1,0,0,0.2,0.2,0.4c0,0.1,0,0.2,0,0.3
				c-0.2-0.4-0.1,0.5-0.3-0.1c0,0.4-0.2,0.7-0.2,1.7c0-0.1,0-0.1,0-0.2c-0.1,0.1-0.1-0.2-0.2-0.1l0-0.7c-0.1,0.2-0.1,0.4-0.2,0.5
				c-0.1-0.5,0-0.7,0.1-1c-0.3,0.2-0.2,0-0.5,0l0.1-0.2c-0.1-0.1-0.3-0.1-0.3-0.3c0-0.2,0-0.3,0-0.5c0-0.1-0.2-0.4-0.3-0.8
				c-0.3-0.7-0.6-1.4-0.7-2c-0.4,0.4,0-0.6-0.4-0.5c0.1-0.1,0.1-0.3,0.3-0.2c-0.4-0.6-0.2-1-0.7-1.3c0.1-0.1,0.2,0.1,0.3,0
				c0,0-0.2-0.1-0.1-0.2c0.1-0.1,0.1,0,0.2,0.1c-0.3-0.6-0.7-0.5-1.1-0.4c0.1-0.4,0-0.5-0.4-0.7c0.1-0.2,0.1-0.4,0.3,0
				c-0.1-0.2-0.3-1.4-0.6-1.3c0.1-0.1-0.1-0.3-0.1-0.4c-0.2-0.5-0.1-0.6-0.3-1l0,0.2c-0.4-0.1-0.2-0.4-0.4-0.7l0,0
				c-0.1-1-0.3-0.3-0.3-1.3l-0.2,0.1c-0.5,0.1,0-0.9-0.3-1.3l-0.1,0.2c-0.3-0.2,0.4-1,0.4-1.3c0-0.1,0.1,0.1,0.2,0.2
				c0.1-0.8-0.3,0-0.6-0.5c0.1-0.2,0.4,0,0.4-0.4c0.1-0.2-0.8-0.9-0.7-1.5c-0.1,0.1-0.2,0.3-0.4,0.1c-0.2-0.4,0.2-1.2-0.3-1.5
				c0-0.1,0-0.1,0.1-0.1c-0.2-0.3-0.4-0.9-0.7-1.1c0.7-0.5-0.8-1.8-0.1-2c-0.1-0.3-0.2-0.6-0.2-0.9l0.1,0c-0.1-0.6-0.3-0.8-0.5-1
				c0-0.1,0.1-0.1,0.2-0.1c0-0.9-0.1-1-0.6-1.7l0.2-0.1c-0.2-0.2,0.2-1.3-0.2-2.2c0,0,0.1,0,0.1,0.1c-0.2-0.5-0.1-1.1,0-1.6
				c0.1-0.5,0.1-0.9-0.3-1.1l-0.2-0.6c-0.1,0.8-0.4-0.2-0.5,0.2C43.6,12.1,44,11.6,44,12L43.9,12c0.4,0.2,0.3-1,0.6-0.9
				c0.2-1.3,1.6-2.7,2.4-2.9c-0.1-0.1-0.1-0.2-0.2-0.3c0.1,0,0.2-0.1,0.4-0.1c0.1,0.1,0.1,0.3-0.1,0.3c0.1,0.2,0.3-0.2,0.4-0.3
				c0.5,0.2-0.2,0.4-0.1,0.4c0,0,0.1,0,0.2,0l0-0.1c0.2-0.1,0.2-0.3,0.5-0.1c0.2,0.2,0,0.2,0.1,0.3c0,0,0,0,0.1,0.1l0.4,0.3l0-0.4
				c0.3,0,0.4,0.4,0.4-0.1c0,0.3,0.4,0.8,0.7,1.2c0.4,0.5,0.7,0.9,0.7,1.1c0.4,0.2,0.7,0.8,1,1.4c-0.1-0.2,0.1-0.6,0.3-0.1
				c-0.5,0.6,0.3,1.3,0.4,2.7c-0.1-1.1,0.8,1.7,0.6,0c0.2,0.6,0,0.6,0.1,1.4c0.1,0.1,0.1,0.1,0.2,0.2c0.2-0.8,0.5-1.2,0.8-1.9
				c0.3-0.6,0.7-1.3,1-2.1c0-0.1-0.3,0-0.2-0.4c0.2-0.1,0.5-0.3,0.7-0.4c0.1-0.2,0-0.3,0-0.5c0-0.1,0-0.2,0.2-0.3
				c-0.1,0-0.2,0-0.2-0.1c0.7-0.8,1.3-1.7,2-2.3c0.4-0.3,0.8-0.5,1.1-0.5c0.4,0.1,0.7,0.2,0.9,0.6c-0.1-0.3,0-0.2,0.2-0.1
				c-0.1-0.1,0.1-0.2,0.2-0.3c0.2,0.2,0.2,0.5,0.3,0.8c0.4-0.1,0.5,0.7,0.8,0.6l-0.2-0.2c0.5,0.1,0.4-0.9,0.7-1.2
				c-0.3,0-0.4-0.4-0.6-0.7c-0.2-0.3-0.5-0.7-1.1-0.6C59.7,6.5,60,6.6,60,6.5c-0.3,0.1-0.5,0-1.1-0.1l0.1,0c-0.4,0-0.7,0-1,0.1
				c-0.3,0-0.6,0.1-0.8,0.2c-0.3,0.1-0.5,0.2-0.8,0.4c-0.3,0.1-0.5,0.3-0.8,0.6l0.2,0.1c-0.2,0.2-0.3,0.2-0.5,0.3
				c0,0.5,0.6-0.6,0.7-0.1c-0.7-0.1-1.3,1.6-1.9,1.5c-0.2,0.4,0.3,0,0.1,0.4l-0.2,0L54,9.9c-0.2,0.3-0.4,0.2-0.5,0.1
				c0,0,0-0.1,0-0.2c-0.2,0.1-0.1,0.1-0.2,0.2c0,0.1,0,0.2-0.1,0.2c0,0,0.1,0,0.1-0.1c-0.1,0.5-0.4,0.8-0.5,1.5c0,0-0.1,0-0.1,0
				l0,0.3c-0.2-0.1-0.1-0.6-0.4-0.9l0,0c-0.1,0-0.2,0-0.3-0.2c0.1,0,0-0.4,0.2-0.4c-0.2-0.1-0.2-0.1-0.3-0.1c-0.1,0-0.1,0.1-0.5-0.1
				l0.1-0.2c-0.3-0.1-0.3-0.1-0.6-0.4c0.4,0.2,0-0.4,0.5-0.2c-0.3-1.1-1.2-1-1.2-1.7c-0.7,0,0.5,0.9,0.2,0.8c0,0.3-0.5-0.1-0.7-0.3
				c-0.2-0.2,0.1-0.9-0.8-1.4c0.1,0,0.1,0,0.2,0.1c-0.3-0.3-0.7-0.2-1.2-0.5c-0.3,0.2-0.7-0.1-0.8,0.3c0.3-0.1,0.6,0,0.9,0
				c-0.6,0-1,0.3-1.8,0.4c0-0.1,0.2-0.3,0.4-0.4c-0.3-0.1-0.4,0.2-0.7,0.2c0-0.2,0.2-0.3,0.6-0.4c0.4,0,0.8-0.1,1.2-0.2
				c-0.3-0.3-1.2,0.3-0.9-0.2c-0.2,0.3-0.5,0.3-0.8,0.4c-0.3,0.1-0.6,0.2-0.8,0.6l-0.1-0.2c-0.1,0.1-0.2,0.3-0.3,0.4
				C44.9,7,45,6.8,45,6.7c-0.3,0.5-0.9,0.6-1.2,1.1c0.7-0.8,0.4,0,0.8-0.2c-0.3,0.6-0.5,0.6-0.8,0.7c-0.2,0.1-0.6,0.1-0.9,0.8
				c0-0.2,0.5-0.5,0.4-0.2c-0.2,0.2-0.4,0.5-0.6,0.6c-0.3,1,0.3-0.1,0.3,0.4c-0.4,0.2-0.1,0.5-0.1,0.9l-0.2-0.1
				c-0.3,1,0.4,0.4,0.1,1.2l-0.3-0.4l0,0.5l-0.3-0.1c0.1,0.5,0.1,0.7,0,1.2c0.2-0.1,0.4,0.1,0.4,0.5c-0.1,0.3-0.2-0.2-0.2,0.4
				c-0.1-0.1-0.3-0.3-0.1-0.6c-0.1,0-0.1-0.1-0.2-0.2c-0.2,0.3-0.1,0.8,0,1c0-0.1,0-0.2,0.1-0.2c0.1,0.3,0.3,0.6,0.4,0.9
				c-0.1,0.1-0.2,0-0.2-0.1c0,0.2,0.2,0.3,0.2,0.5c-0.2-0.1-0.4,0-0.5-0.4l0.3,0.8c-0.1,0.1-0.2,0.4-0.3,0.3
				c-0.1,0.5,0.5,1.1,0.4,1.7c0,0,0.1,0.1,0.1,0.2c0,0.6-0.1,1.1,0.3,1.7L42.7,20c0.2,0.5,0.3-0.6,0.6,0.2c0.2,0.6-0.2,0.3-0.3,0.5
				c0.2,0.3,0.7,0.7,0.5,1.3C43.5,21.9,43.5,21.7,43.4,21.6z M45.2,27.6c-0.1-0.1-0.3-0.3-0.2-0.4C45.3,27.3,45.2,27.4,45.2,27.6z
				 M48.8,36.5c-0.1-0.1-0.1-0.2-0.1-0.4C48.7,36.2,48.8,36.4,48.8,36.5z M58.3,28.5L58.3,28.5C58.1,28.8,58.2,28.7,58.3,28.5z
				 M58.5,28C58.5,28,58.5,28,58.5,28c0,0-0.1,0.1-0.1,0.3C58.5,28.3,58.5,28.2,58.5,28z M48.1,8.3L48.1,8.3
				C48.3,8.2,48.2,8.3,48.1,8.3z"/>
			<path class="st3" d="M48.1,35.6c0,0,0.1-0.1,0.1-0.1C48.1,35.5,48.1,35.5,48.1,35.6z"/>
			<path class="st3" d="M42.6,17.7C42.6,17.7,42.6,17.7,42.6,17.7C42.5,17.7,42.5,17.6,42.6,17.7L42.6,17.7z"/>
			<path class="st3" d="M57.6,36.9c-0.1,0.1-0.1,0.1-0.2,0.2C57.5,37.1,57.6,37.1,57.6,36.9z"/>
			<path class="st3" d="M59,25.1l0,0.4c0-0.2,0.1-0.2,0.2-0.3C59,25.2,58.9,25.2,59,25.1z"/>
			<path class="st3" d="M61.1,22.5c0-0.1,0-0.1,0-0.2l-0.1,0C61,22.5,61,22.7,61.1,22.5z"/>
			<path class="st3" d="M59.8,25c0.2,0,0.2-0.2,0.2-0.5l0,0C59.8,24.4,59.8,24.7,59.8,25z"/>
			<path class="st3" d="M60,24.5c0-0.1,0-0.2,0.1-0.2C60,24.2,60,24.3,60,24.5z"/>
			<path class="st3" d="M58.6,27.3c0.1-0.1-0.2-0.1-0.1-0.2C58.3,26.9,58.6,28,58.6,27.3z"/>
			<polygon class="st3" points="60.5,25 60.2,25 60.4,25.2 			"/>
			<path class="st3" d="M59.8,26.8l0.2-0.4c0,0-0.1-0.1-0.1-0.1C59.8,26.6,59.7,26.8,59.8,26.8z"/>
			<path class="st3" d="M59.9,26.3c0-0.1,0.1-0.2,0.1-0.3C60,26.1,59.9,26.2,59.9,26.3z"/>
			<polygon class="st3" points="60.4,25.5 60.3,25.6 60.3,25.9 			"/>
			<path class="st3" d="M58.5,30.9l-0.1,0.4c0.1,0.1,0.2,0,0.2-0.2C58.6,31.1,58.6,30.9,58.5,30.9z"/>
			<path class="st3" d="M59.5,29.9C59.4,30,59.4,30,59.3,30l0.3,0.1L59.5,29.9z"/>
			<path class="st3" d="M59.2,31.1c0.1,0.1,0,0.7,0.2,0.1C59.3,31.2,59.4,30.8,59.2,31.1z"/>
			<polygon class="st3" points="56.6,37.2 56.7,37.1 56.2,37 			"/>
			<path class="st3" d="M55,44c0.4-0.6-0.1-0.5,0.3-1c0-0.3-0.3,0.4-0.3,0.2C54.8,43.6,54.7,43.8,55,44z"/>
			<path class="st3" d="M55,43.1c0-0.1,0-0.2,0-0.3C55,43,55,43.1,55,43.1z"/>
			<polygon class="st3" points="60.2,9.4 60.3,9.7 60.3,9.5 			"/>
			<path class="st3" d="M60.8,9.7l-0.2,0.2l0.3,0C60.9,9.8,60.8,9.7,60.8,9.7z"/>
			<path class="st3" d="M44.8,28.7L44.8,28.7c0.1-0.1,0.1-0.2,0.1-0.3L44.8,28.7z"/>
			<polygon class="st3" points="43.8,24.2 43.8,24.3 44,24.1 			"/>
			<path class="st3" d="M42.6,20.5c0,0.2,0.1,0.3,0.1,0.5C42.6,20.7,42.9,20.4,42.6,20.5z"/>
		</g>
	</g>
</g>
</svg>
